<?xml version="1.0" encoding="iso-8859-1"?>
<!-- Generator: Adobe Illustrator 19.0.0, SVG Export Plug-In . SVG Version: 6.00 Build 0)  -->
<svg version="1.1" id="Layer_1" xmlns="http://www.w3.org/2000/svg" xmlns:xlink="http://www.w3.org/1999/xlink" x="0px" y="0px"
	 viewBox="0 0 512 512" style="enable-background:new 0 0 512 512;" xml:space="preserve">
<g>
	<g>
		<path d="M477.531,272.249c0-5.302-4.297-9.6-9.6-9.6h-4.288v-29.695h4.288c5.303,0,9.6-4.298,9.6-9.6c0-5.302-4.297-9.6-9.6-9.6
			h-4.288v-25.365c0-4.773-3.507-8.822-8.231-9.501c-32.934-4.742-57.77-33.117-57.77-66V27.323c0-5.302-4.297-9.6-9.6-9.6h-15.838
			V9.6c0-5.302-4.297-9.6-9.6-9.6c-5.303,0-9.6,4.298-9.6,9.6v8.124h-15.951c-5.303,0-9.6,4.298-9.6,9.6
			c0,39.198-31.889,71.088-71.087,71.088s-71.087-31.89-71.087-71.088c0-5.302-4.298-9.6-9.6-9.6h-15.951V9.6
			c0-5.302-4.298-9.6-9.6-9.6c-5.302,0-9.6,4.298-9.6,9.6v8.124h-15.837c-5.302,0-9.6,4.298-9.6,9.6v85.563
			c0,32.884-24.835,61.258-57.769,66c-4.724,0.68-8.231,4.728-8.231,9.501v25.366h-5.024c-5.302,0-9.6,4.298-9.6,9.6
			c0,5.302,4.298,9.6,9.6,9.6h5.024v29.695h-5.024c-5.302,0-9.6,4.298-9.6,9.6c0,5.302,4.298,9.6,9.6,9.6h5.024v29.695h-5.024
			c-5.302,0-9.6,4.298-9.6,9.6c0,5.302,4.298,9.6,9.6,9.6h5.024v29.695h-5.024c-5.302,0-9.6,4.298-9.6,9.6s4.298,9.6,9.6,9.6h5.024
			v29.695h-5.024c-5.302,0-9.6,4.298-9.6,9.6c0,5.302,4.298,9.6,9.6,9.6h5.024v29.695h-5.024c-5.302,0-9.6,4.298-9.6,9.6
			s4.298,9.6,9.6,9.6h5.024V502.4c0,2.546,1.011,4.988,2.812,6.788c1.801,1.801,4.242,2.812,6.789,2.812l61.633-0.004
			c5.302,0,9.6-4.298,9.6-9.6c0-5.302-4.298-9.6-9.6-9.6l-52.033,0.003v-15.372h6.496c5.302,0,9.6-4.298,9.6-9.6s-4.298-9.6-9.6-9.6
			h-6.496v-29.695h6.496c5.302,0,9.6-4.298,9.6-9.6c0-5.302-4.298-9.6-9.6-9.6h-6.496v-29.695h6.496c5.302,0,9.6-4.298,9.6-9.6
			c0-5.302-4.298-9.6-9.6-9.6h-6.496v-29.695h6.496c5.302,0,9.6-4.298,9.6-9.6c0-5.302-4.298-9.6-9.6-9.6h-6.496v-29.695h6.496
			c5.302,0,9.6-4.298,9.6-9.6c0-5.302-4.298-9.6-9.6-9.6h-6.496v-29.695h6.496c5.302,0,9.6-4.298,9.6-9.6c0-5.302-4.298-9.6-9.6-9.6
			h-6.496v-17.46c38.157-9.344,66-43.836,66-83.408V36.923h6.239v9.796c0,5.302,4.298,9.6,9.6,9.6s9.6-4.298,9.6-9.6v-9.796h6.858
			c4.808,45.288,43.237,80.688,89.779,80.688c46.542,0,84.972-35.399,89.781-80.688h6.857v9.796c0,5.302,4.297,9.6,9.6,9.6
			s9.6-4.298,9.6-9.6v-9.796h6.239v75.963c0,39.571,27.844,74.063,66,83.408v17.46h-7.232c-5.303,0-9.6,4.298-9.6,9.6
			c0,5.302,4.297,9.6,9.6,9.6h7.232v29.695h-7.232c-5.303,0-9.6,4.298-9.6,9.6c0,5.302,4.297,9.6,9.6,9.6h7.232v29.695h-7.232
			c-5.303,0-9.6,4.298-9.6,9.6c0,5.302,4.297,9.6,9.6,9.6h7.232v29.695h-7.232c-5.303,0-9.6,4.298-9.6,9.6s4.297,9.6,9.6,9.6h7.232
			v29.695h-7.232c-5.303,0-9.6,4.298-9.6,9.6c0,5.302,4.297,9.6,9.6,9.6h7.232v29.695h-7.232c-5.303,0-9.6,4.298-9.6,9.6
			s4.297,9.6,9.6,9.6h7.232v15.36l-294.677,0.01c-5.303,0-9.6,4.298-9.6,9.6c0,5.303,4.298,9.6,9.6,9.6l304.276-0.01
			c5.303,0,9.6-4.298,9.6-9.6v-24.959h4.288c5.303,0,9.6-4.298,9.6-9.6s-4.297-9.6-9.6-9.6h-4.288v-29.695h4.288
			c5.303,0,9.6-4.298,9.6-9.6c0-5.302-4.297-9.6-9.6-9.6h-4.288v-29.695h4.288c5.303,0,9.6-4.298,9.6-9.6c0-5.302-4.297-9.6-9.6-9.6
			h-4.288v-29.695h4.288c5.303,0,9.6-4.298,9.6-9.6c0-5.302-4.297-9.6-9.6-9.6h-4.288v-29.695h4.288v0
			C473.234,281.848,477.531,277.55,477.531,272.249z"/>
	</g>
</g>
<g>
	<g>
		<path d="M221.707,155.79c-5.302,0-9.6,4.298-9.6,9.6c0,5.302,4.298,9.6,9.6,9.6c4.822,0,8.743,3.922,8.743,8.745v88.104
			c0,4.822-3.922,8.743-8.743,8.743h-55.466c-4.822,0-8.743-3.922-8.743-8.743v-88.104c0-4.822,3.922-8.745,8.743-8.745H191.2
			c5.302,0,9.6-4.298,9.6-9.6c0-5.302-4.298-9.6-9.6-9.6h-24.959c-15.408,0-27.943,12.535-27.943,27.944v88.104
			c0,15.408,12.535,27.943,27.943,27.943h55.466c15.408,0,27.943-12.535,27.943-27.943v-88.104
			C249.649,168.326,237.115,155.79,221.707,155.79z"/>
	</g>
</g>
<g>
	<g>
		<path d="M346.497,155.788h-55.466c-15.408,0-27.943,12.535-27.943,27.944v88.104c0,15.408,12.535,27.943,27.943,27.943h55.466
			c15.408,0,27.943-12.535,27.943-27.943v-88.104C374.44,168.324,361.905,155.788,346.497,155.788z M355.24,271.838
			c0,4.822-3.922,8.743-8.743,8.743h-55.466c-4.822,0-8.743-3.922-8.743-8.743v-88.104c0-4.822,3.922-8.745,8.743-8.745h55.466
			c4.822,0,8.743,3.922,8.743,8.745V271.838z"/>
	</g>
</g>
<g>
	<g>
		<path d="M384.948,374.742c5.303,0,9.6-4.298,9.6-9.6v-23.98c0-15.408-12.535-27.944-27.943-27.944h-75.574
			c-15.408,0-27.943,12.535-27.943,27.944v88.103c0,15.408,12.535,27.943,27.943,27.943h75.574
			c15.408,0,27.943-12.535,27.943-27.943V397.14c0-5.302-4.297-9.6-9.6-9.6c-5.303,0-9.6,4.298-9.6,9.6v32.125
			c0,4.822-3.922,8.743-8.743,8.743h-75.574c-4.822,0-8.743-3.922-8.743-8.743v-88.103c0-4.822,3.922-8.745,8.743-8.745h75.574
			c4.822,0,8.743,3.922,8.743,8.745v23.98C375.348,370.444,379.645,374.742,384.948,374.742z"/>
	</g>
</g>
<g>
	<g>
		<path d="M221.707,313.218h-75.574c-15.408,0-27.944,12.535-27.944,27.944v88.104c0,15.408,12.535,27.943,27.944,27.943h75.574
			c15.408,0,27.943-12.535,27.943-27.943v-88.104C249.649,325.754,237.115,313.218,221.707,313.218z M230.45,429.266
			c0,4.822-3.922,8.743-8.743,8.743h-75.574c-4.822,0-8.745-3.922-8.745-8.743v-88.104c0-4.822,3.922-8.745,8.745-8.745h75.574
			c4.822,0,8.743,3.922,8.743,8.745V429.266z"/>
	</g>
</g>
<g>
</g>
<g>
</g>
<g>
</g>
<g>
</g>
<g>
</g>
<g>
</g>
<g>
</g>
<g>
</g>
<g>
</g>
<g>
</g>
<g>
</g>
<g>
</g>
<g>
</g>
<g>
</g>
<g>
</g>
</svg>
