<?xml version="1.0" encoding="iso-8859-1"?>
<!-- Generator: Adobe Illustrator 19.0.0, SVG Export Plug-In . SVG Version: 6.00 Build 0)  -->
<svg version="1.1" id="Layer_1" xmlns="http://www.w3.org/2000/svg" xmlns:xlink="http://www.w3.org/1999/xlink" x="0px" y="0px"
	 viewBox="0 0 512 512" style="enable-background:new 0 0 512 512;" xml:space="preserve">
<g>
	<g>
		<path d="M468.846,389.632c-1.785-2.19-4.458-3.462-7.282-3.462h-0.546c12.329-86.436,12.329-173.907,0-260.343h0.547
			c2.824,0,5.497-1.272,7.28-3.461c1.782-2.19,2.484-5.065,1.911-7.83l-14.517-70.092c-0.902-4.358-4.741-7.484-9.192-7.484h-3.231
			c-2.478-10.101-5.134-20.204-7.938-30.126C434.737,2.791,431.047,0,426.845,0h-66.955c-5.186,0-9.387,4.203-9.387,9.387
			s4.202,9.387,9.387,9.387h16.812c1.245,6.073,2.438,12.145,3.572,18.185h-64.008c-0.421-5.995-0.869-12.071-1.339-18.185H328.6
			c5.186,0,9.387-4.203,9.387-9.387S333.785,0,328.6,0H85.157c-4.204,0-7.897,2.795-9.036,6.843
			c-2.844,10.097-5.497,20.19-7.937,30.118h-3.234c-4.451,0-8.29,3.125-9.192,7.484l-14.515,70.092
			c-0.573,2.765,0.13,5.641,1.911,7.83c1.784,2.189,4.457,3.461,7.28,3.461h0.561c-12.34,86.436-12.34,173.907,0,260.343h-0.561
			c-2.824,0-5.497,1.272-7.28,3.461c-1.782,2.19-2.485,5.065-1.911,7.83l14.515,70.092c0.902,4.358,4.741,7.484,9.192,7.484h3.234
			c2.438,9.927,5.093,20.021,7.937,30.118c1.139,4.048,4.83,6.843,9.036,6.843h341.688c4.201,0,7.892-2.791,9.034-6.834
			c2.804-9.924,5.46-20.026,7.938-30.127h3.23c4.451,0,8.29-3.125,9.192-7.484l14.517-70.092
			C471.33,394.698,470.627,391.822,468.846,389.632z M419.712,18.775c1.648,6.024,3.234,12.101,4.761,18.185h-25.101
			c-1.113-6.033-2.285-12.106-3.512-18.185H419.712z M215.905,18.775h80.191c0.476,6.113,0.925,12.186,1.349,18.185h-82.887
			C214.982,30.961,215.432,24.888,215.905,18.775z M135.3,18.775h61.775c-0.471,6.114-0.919,12.19-1.339,18.185h-64.008
			C132.861,30.919,134.054,24.848,135.3,18.775z M92.294,18.775h23.846c-1.225,6.079-2.399,12.152-3.512,18.185H87.53
			C89.044,30.938,90.628,24.868,92.294,18.775z M72.595,55.735h366.812l10.628,51.318H61.967L72.595,55.735z M69.962,125.827h29.73
			c-3.382,31.487-5.564,63.482-6.47,95.277c-0.148,5.183,3.934,9.504,9.116,9.651c0.091,0.003,0.183,0.004,0.273,0.004
			c5.06,0,9.233-4.029,9.379-9.12c0.911-31.982,3.138-64.167,6.591-95.813h72.218c-3.545,86.433-3.545,173.911,0,260.343h-72.2
			c-4.679-42.855-7.086-86.485-7.097-129.842c-0.001-5.184-4.203-9.385-9.387-9.385c0,0-0.001,0-0.003,0
			c-5.186,0.001-9.386,4.206-9.385,9.39c0.011,43.347,2.379,86.965,6.985,129.837h-29.75
			C57.361,299.749,57.361,212.249,69.962,125.827z M92.294,493.225c-1.666-6.093-3.251-12.165-4.764-18.188h25.098
			c1.113,6.033,2.287,12.107,3.512,18.188H92.294z M135.301,493.225c-1.245-6.074-2.438-12.146-3.572-18.188h64.008
			c0.421,5.997,0.869,12.073,1.339,18.188H135.301z M296.097,493.225h-80.191c-0.474-6.113-0.924-12.187-1.348-18.188h82.887
			C297.02,481.038,296.571,487.112,296.097,493.225z M376.703,493.225h-61.775c0.471-6.114,0.919-12.191,1.339-18.188h64.008
			C379.141,481.078,377.948,487.151,376.703,493.225z M419.713,493.225h-23.851c1.225-6.081,2.399-12.154,3.512-18.188h25.101
			C422.948,481.123,421.363,487.2,419.713,493.225z M439.406,456.263H72.595l-10.628-51.318h388.068L439.406,456.263z
			 M442.053,386.17h-29.73c6.84-63.729,8.648-128.56,5.351-192.876c-0.265-5.178-4.652-9.161-9.856-8.894
			c-5.178,0.265-9.16,4.677-8.894,9.855c3.281,64.004,1.423,128.523-5.491,191.914h-72.229c0.74-18.075,1.339-36.349,1.769-54.484
			c0.123-5.183-3.98-9.484-9.162-9.606c-0.076-0.001-0.151-0.003-0.227-0.003c-5.082,0-9.26,4.058-9.381,9.166
			c-0.433,18.284-1.04,36.71-1.791,54.927H209.59c-3.568-86.429-3.568-173.914,0-260.343h92.812
			c2.253,54.62,3.103,110.228,2.491,165.459c-0.056,5.184,4.099,9.434,9.284,9.491c0.035,0,0.071,0,0.106,0
			c5.137,0,9.327-4.135,9.385-9.284c0.611-55.297-0.234-110.97-2.474-165.667h72.245c1.169,10.722,2.208,21.553,3.087,32.316
			c0.401,4.908,4.508,8.625,9.346,8.625c0.257,0,0.514-0.01,0.774-0.031c5.168-0.422,9.014-4.953,8.594-10.12
			c-0.836-10.248-1.812-20.565-2.91-30.789h29.722C454.642,212.249,454.642,299.75,442.053,386.17z"/>
	</g>
</g>
<g>
	<g>
		<path d="M256.001,310.697c-18.289,0-33.169,14.88-33.169,33.169c0,18.289,14.88,33.169,33.169,33.169
			c18.289,0,33.169-14.88,33.169-33.169C289.17,325.577,274.29,310.697,256.001,310.697z M256.001,358.26
			c-7.937,0-14.394-6.457-14.394-14.394s6.457-14.394,14.394-14.394c7.937,0,14.394,6.457,14.394,14.394
			S263.938,358.26,256.001,358.26z"/>
	</g>
</g>
<g>
	<g>
		<path d="M256.004,72.006c-5.194,0-9.387,4.206-9.387,9.387s4.193,9.387,9.387,9.387c5.182,0,9.387-4.206,9.387-9.387
			S261.186,72.006,256.004,72.006z"/>
	</g>
</g>
<g>
	<g>
		<path d="M221.583,72.006c-5.194,0-9.387,4.206-9.387,9.387s4.193,9.387,9.387,9.387c5.182,0,9.387-4.206,9.387-9.387
			S226.765,72.006,221.583,72.006z"/>
	</g>
</g>
<g>
	<g>
		<path d="M324.845,72.006c-5.194,0-9.387,4.206-9.387,9.387s4.193,9.387,9.387,9.387c5.182,0,9.387-4.206,9.387-9.387
			S330.026,72.006,324.845,72.006z"/>
	</g>
</g>
<g>
	<g>
		<path d="M290.424,72.006c-5.194,0-9.4,4.206-9.4,9.387s4.204,9.387,9.4,9.387c5.182,0,9.387-4.206,9.387-9.387
			S295.606,72.006,290.424,72.006z"/>
	</g>
</g>
<g>
	<g>
		<path d="M118.322,72.006c-5.194,0-9.387,4.206-9.387,9.387s4.193,9.387,9.387,9.387c5.182,0,9.387-4.206,9.387-9.387
			S123.504,72.006,118.322,72.006z"/>
	</g>
</g>
<g>
	<g>
		<path d="M187.163,72.006c-5.194,0-9.387,4.206-9.387,9.387s4.193,9.387,9.387,9.387c5.182,0,9.387-4.206,9.387-9.387
			S192.345,72.006,187.163,72.006z"/>
	</g>
</g>
<g>
	<g>
		<path d="M152.743,72.006c-5.194,0-9.387,4.206-9.387,9.387s4.193,9.387,9.387,9.387c5.182,0,9.387-4.206,9.387-9.387
			S157.925,72.006,152.743,72.006z"/>
	</g>
</g>
<g>
	<g>
		<path d="M393.685,72.006c-5.194,0-9.387,4.206-9.387,9.387s4.193,9.387,9.387,9.387c5.182,0,9.387-4.206,9.387-9.387
			S398.867,72.006,393.685,72.006z"/>
	</g>
</g>
<g>
	<g>
		<path d="M359.265,72.006c-5.194,0-9.387,4.206-9.387,9.387s4.193,9.387,9.387,9.387c5.182,0,9.387-4.206,9.387-9.387
			S364.447,72.006,359.265,72.006z"/>
	</g>
</g>
<g>
	<g>
		<path d="M221.583,421.217c-5.194,0-9.387,4.206-9.387,9.387c0,5.182,4.193,9.387,9.387,9.387c5.182,0,9.387-4.206,9.387-9.387
			C230.971,425.422,226.765,421.217,221.583,421.217z"/>
	</g>
</g>
<g>
	<g>
		<path d="M187.163,421.217c-5.194,0-9.387,4.206-9.387,9.387c0,5.182,4.193,9.387,9.387,9.387c5.182,0,9.387-4.206,9.387-9.387
			C196.55,425.422,192.345,421.217,187.163,421.217z"/>
	</g>
</g>
<g>
	<g>
		<path d="M393.685,421.217c-5.194,0-9.387,4.206-9.387,9.387c0,5.182,4.193,9.387,9.387,9.387c5.182,0,9.387-4.206,9.387-9.387
			C403.073,425.422,398.867,421.217,393.685,421.217z"/>
	</g>
</g>
<g>
	<g>
		<path d="M118.322,421.217c-5.194,0-9.387,4.206-9.387,9.387c0,5.182,4.193,9.387,9.387,9.387c5.182,0,9.387-4.206,9.387-9.387
			C127.71,425.422,123.504,421.217,118.322,421.217z"/>
	</g>
</g>
<g>
	<g>
		<path d="M152.743,421.217c-5.194,0-9.387,4.206-9.387,9.387c0,5.182,4.193,9.387,9.387,9.387c5.182,0,9.387-4.206,9.387-9.387
			C162.13,425.422,157.925,421.217,152.743,421.217z"/>
	</g>
</g>
<g>
	<g>
		<path d="M256.004,421.217c-5.194,0-9.387,4.206-9.387,9.387c0,5.182,4.193,9.387,9.387,9.387c5.182,0,9.387-4.206,9.387-9.387
			C265.391,425.422,261.186,421.217,256.004,421.217z"/>
	</g>
</g>
<g>
	<g>
		<path d="M324.845,421.217c-5.194,0-9.387,4.206-9.387,9.387c0,5.182,4.193,9.387,9.387,9.387c5.182,0,9.387-4.206,9.387-9.387
			C334.232,425.422,330.026,421.217,324.845,421.217z"/>
	</g>
</g>
<g>
	<g>
		<path d="M290.424,421.217c-5.194,0-9.4,4.206-9.4,9.387c0,5.182,4.204,9.387,9.4,9.387c5.182,0,9.387-4.206,9.387-9.387
			C299.812,425.422,295.606,421.217,290.424,421.217z"/>
	</g>
</g>
<g>
	<g>
		<path d="M359.265,421.217c-5.194,0-9.387,4.206-9.387,9.387c0,5.182,4.193,9.387,9.387,9.387c5.182,0,9.387-4.206,9.387-9.387
			C368.652,425.422,364.447,421.217,359.265,421.217z"/>
	</g>
</g>
<g>
	<g>
		<path d="M83.902,72.006c-5.194,0-9.387,4.206-9.387,9.387s4.193,9.387,9.387,9.387c5.182,0,9.387-4.206,9.387-9.387
			S89.084,72.006,83.902,72.006z"/>
	</g>
</g>
<g>
	<g>
		<path d="M428.106,72.006c-5.194,0-9.387,4.206-9.387,9.387s4.193,9.387,9.387,9.387c5.182,0,9.387-4.206,9.387-9.387
			S433.288,72.006,428.106,72.006z"/>
	</g>
</g>
<g>
	<g>
		<path d="M83.902,421.217c-5.194,0-9.387,4.206-9.387,9.387c0,5.182,4.193,9.387,9.387,9.387c5.182,0,9.387-4.206,9.387-9.387
			C93.289,425.422,89.084,421.217,83.902,421.217z"/>
	</g>
</g>
<g>
	<g>
		<path d="M428.106,421.217c-5.194,0-9.387,4.206-9.387,9.387c0,5.182,4.193,9.387,9.387,9.387c5.182,0,9.387-4.206,9.387-9.387
			C437.493,425.422,433.288,421.217,428.106,421.217z"/>
	</g>
</g>
<g>
</g>
<g>
</g>
<g>
</g>
<g>
</g>
<g>
</g>
<g>
</g>
<g>
</g>
<g>
</g>
<g>
</g>
<g>
</g>
<g>
</g>
<g>
</g>
<g>
</g>
<g>
</g>
<g>
</g>
</svg>
