<?xml version="1.0" encoding="iso-8859-1"?>
<!-- Generator: Adobe Illustrator 19.0.0, SVG Export Plug-In . SVG Version: 6.00 Build 0)  -->
<svg version="1.1" id="Layer_1" xmlns="http://www.w3.org/2000/svg" xmlns:xlink="http://www.w3.org/1999/xlink" x="0px" y="0px"
	 viewBox="0 0 512.001 512.001" style="enable-background:new 0 0 512.001 512.001;" xml:space="preserve">
<g>
	<g>
		<path d="M439.211,206.569h-2.344c-9.868-37.265-30.479-70.27-59.903-95.776c-28.633-24.821-63.132-40.328-100.348-45.219v-2.009
			c0-4.55-3.688-8.239-8.239-8.239c-3.742,0-6.896,2.497-7.9,5.914c-0.654-1.048-1.033-2.282-1.033-3.592
			c0-1.828,0.707-3.539,2.003-4.83c1.292-1.292,3.007-2.003,4.829-2.003h13.544c14.01,0,25.408-11.398,25.408-25.408
			c0-6.773-2.635-13.149-7.433-17.964C292.995,2.643,286.611,0,279.821,0h-12.752c-30.199,0-55.202,22.296-58.157,51.865
			c-1.553,15.56,3.147,30.749,13.236,42.769c9.72,11.582,23.157,18.74,37.991,20.316v282.102
			c-14.834,1.576-28.27,8.734-37.991,20.315c-10.088,12.021-14.789,27.209-13.236,42.77c2.955,29.567,27.957,51.863,58.157,51.863
			h12.752c14.01,0,25.408-11.398,25.408-25.408c0-6.773-2.635-13.149-7.432-17.963c-4.8-4.8-11.185-7.444-17.975-7.444h-13.544
			c-3.768,0-6.833-3.066-6.833-6.833c0-1.29,0.36-2.533,1.028-3.605c0.999,3.426,4.157,5.932,7.905,5.932
			c4.551,0,8.239-3.689,8.239-8.239v-2.017c52.051-6.885,99.044-34.814,130.19-77.762c2.672-3.683,1.851-8.834-1.832-11.505
			c-3.684-2.67-8.835-1.852-11.507,1.832c-28.045,38.672-70.135,64.014-116.852,70.788v-18.069
			c34.383-5.56,65.957-22.369,90.014-48.184c15.504-16.634,27.304-36.613,34.39-58.092h18.739
			c-3.09,10.551-7.173,20.81-12.198,30.607c-2.077,4.049-0.479,9.014,3.57,11.09c1.204,0.617,2.488,0.91,3.753,0.91
			c2.992,0,5.878-1.636,7.337-4.481c6.232-12.149,11.139-24.949,14.639-38.127h2.349c4.551,0,8.239-3.689,8.239-8.239v-82.386
			C447.449,210.257,443.761,206.569,439.211,206.569z M260.138,98.346c-9.88-1.481-18.802-6.48-25.369-14.305
			c-7.209-8.59-10.571-19.435-9.461-30.538c2.109-21.108,20.063-37.025,41.761-37.025h12.752c2.39,0,4.637,0.929,6.313,2.607
			c1.687,1.694,2.618,3.94,2.618,6.324c0,4.924-4.006,8.931-8.931,8.931h-13.544c-6.224,0-12.077,2.425-16.469,6.818
			c-4.411,4.394-6.84,10.251-6.84,16.493c0,10.62,7.258,19.764,17.171,22.477V98.346z M260.138,431.875
			c-4.18,1.134-7.975,3.413-10.967,6.641c-4.001,4.319-6.204,9.942-6.204,15.837c0.001,12.851,10.457,23.309,23.31,23.309h13.544
			c2.39,0,4.637,0.93,6.313,2.607c1.688,1.694,2.618,3.94,2.618,6.324c0,4.924-4.006,8.931-8.931,8.931h-12.752
			c-21.698,0-39.652-15.917-41.762-37.024c-1.108-11.103,2.252-21.949,9.461-30.539c6.568-7.827,15.491-12.825,25.37-14.304V431.875
			z M276.616,82.209c33.182,4.778,63.936,18.826,89.555,41.034c25.787,22.354,44.176,50.997,53.601,83.325H401.02
			c-7.09-21.482-18.891-41.461-34.39-58.091c-24.048-25.804-55.622-42.613-90.014-48.18V82.209z M354.576,352.289
			c-20.93,22.457-48.204,37.303-77.961,42.7V117.014c29.763,5.402,57.038,20.247,77.961,42.697
			c12.837,13.773,22.836,30.107,29.289,47.691c-2.746,1.337-4.642,4.145-4.642,7.404v82.386c0,3.259,1.897,6.068,4.643,7.404
			C377.415,322.178,367.416,338.513,354.576,352.289z M430.972,288.954H395.7v-65.909h34.898c0.003,0,0.007,0,0.01,0h0.365V288.954z
			"/>
	</g>
</g>
<g>
	<g>
		<path d="M179.345,97.153l-49.751-82.386c-1.492-2.47-4.167-3.98-7.052-3.98s-5.562,1.51-7.052,3.98L65.74,97.153
			c-1.536,2.544-1.583,5.72-0.122,8.308c1.461,2.588,4.203,4.19,7.175,4.19h28.879v75.246c0,4.55,3.689,8.239,8.239,8.239
			c4.55,0,8.239-3.689,8.239-8.239V109.65h8.788v240.017v111.495h-8.788V349.667V214.554c0-4.55-3.689-8.239-8.239-8.239
			c-4.55,0-8.239,3.689-8.239,8.239v131.343l-31.475,27.194c-1.811,1.565-2.853,3.84-2.853,6.234v119.734
			c0,3.223,1.88,6.15,4.81,7.492c1.097,0.502,2.266,0.747,3.426,0.747c1.942,0,3.861-0.687,5.388-2.005l32.007-27.654h19.132
			l32.007,27.654c1.527,1.319,3.446,2.005,5.388,2.005c1.161,0,2.33-0.245,3.426-0.747c2.931-1.341,4.81-4.269,4.81-7.492V379.325
			c0-2.394-1.041-4.669-2.853-6.234l-31.475-27.194V109.65h28.879c2.972,0,5.714-1.602,7.175-4.19
			C180.928,102.872,180.881,99.697,179.345,97.153z M101.671,465.631l-17.85,15.423v-97.959l17.85-15.423V465.631z M161.263,383.095
			v97.959l-17.85-15.423v-97.959L161.263,383.095z M87.391,93.173l35.151-58.209l35.151,58.209H87.391z"/>
	</g>
</g>
<g>
	<g>
		<path d="M413.34,247.761c-4.548,0-8.239,3.68-8.239,8.239c0,4.548,3.691,8.239,8.239,8.239c4.548,0,8.239-3.691,8.239-8.239
			C421.579,251.44,417.888,247.761,413.34,247.761z"/>
	</g>
</g>
<g>
</g>
<g>
</g>
<g>
</g>
<g>
</g>
<g>
</g>
<g>
</g>
<g>
</g>
<g>
</g>
<g>
</g>
<g>
</g>
<g>
</g>
<g>
</g>
<g>
</g>
<g>
</g>
<g>
</g>
</svg>
