<?xml version="1.0" encoding="iso-8859-1"?>
<!-- Generator: Adobe Illustrator 19.0.0, SVG Export Plug-In . SVG Version: 6.00 Build 0)  -->
<svg version="1.1" id="Layer_1" xmlns="http://www.w3.org/2000/svg" xmlns:xlink="http://www.w3.org/1999/xlink" x="0px" y="0px"
	 viewBox="0 0 512.001 512.001" style="enable-background:new 0 0 512.001 512.001;" xml:space="preserve">
<g>
	<g>
		<path d="M450.18,43.543H166.314V8.708c0-4.809-3.899-8.708-8.708-8.708h-48.762c-4.809,0-8.708,3.899-8.708,8.708v34.835H61.821
			c-4.809,0-8.708,3.899-8.708,8.708v48.753c0,4.809,3.899,8.708,8.708,8.708h18.865c4.809,0,8.708-3.899,8.708-8.708
			s-3.899-8.708-8.708-8.708H70.529V60.959h29.608v442.335c0,4.809,3.899,8.708,8.708,8.708h48.762c4.809,0,8.708-3.899,8.708-8.708
			v-36.83c0-4.809-3.899-8.708-8.708-8.708s-8.708,3.899-8.708,8.708v28.122h-31.346V17.416h31.346v153.251h-12.19
			c-4.809,0-8.708,3.899-8.708,8.708s3.899,8.708,8.708,8.708h12.19v35.023h-12.19c-4.809,0-8.708,3.899-8.708,8.708
			s3.899,8.708,8.708,8.708h12.19v35.023h-12.19c-4.809,0-8.708,3.899-8.708,8.708s3.899,8.708,8.708,8.708h12.19v35.023h-12.19
			c-4.809,0-8.708,3.899-8.708,8.708s3.899,8.708,8.708,8.708h12.19v89.717c0,4.809,3.899,8.708,8.708,8.708
			s8.708-3.899,8.708-8.708v-89.717h17.415v35.41c0,4.809,3.899,8.708,8.708,8.708h245.55c4.809,0,8.708-3.899,8.708-8.708V135.258
			c0-4.809-3.899-8.708-8.708-8.708h-31.346v-16.839h43.539c4.809,0,8.708-3.899,8.708-8.708V52.251
			C458.888,47.442,454.991,43.543,450.18,43.543z M183.729,327.982h-17.415v-35.023h17.415V327.982z M183.729,275.545h-17.415
			v-35.023h17.415V275.545z M183.729,223.106h-17.415v-35.023h17.415V223.106z M183.729,135.257v35.41h-17.415v-60.955h57.469
			v16.838h-31.346C187.628,126.549,183.729,130.448,183.729,135.257z M429.279,143.964v0.001v22.641h-11.611
			c-4.809,0-8.708,3.899-8.708,8.708c0,4.809,3.899,8.708,8.708,8.708h11.611v37.723h-11.611c-4.809,0-8.708,3.899-8.708,8.708
			s3.899,8.708,8.708,8.708h11.611v37.734h-11.611c-4.809,0-8.708,3.899-8.708,8.708s3.899,8.708,8.708,8.708h11.611v37.734h-11.611
			c-4.809,0-8.708,3.899-8.708,8.708s3.899,8.708,8.708,8.708h11.611V372.1h-22.638v-11.613c0-4.809-3.899-8.708-8.708-8.708
			s-8.708,3.899-8.708,8.708V372.1h-37.734v-11.613c0-4.809-3.899-8.708-8.708-8.708s-8.708,3.899-8.708,8.708V372.1h-37.734
			v-11.613c0-4.809-3.899-8.708-8.708-8.708s-8.708,3.899-8.708,8.708V372.1h-37.723v-11.613c0-4.809-3.899-8.708-8.708-8.708
			s-8.708,3.899-8.708,8.708V372.1h-22.643v-26.702h6.966c4.809,0,8.708-3.899,8.708-8.708s-3.899-8.708-8.708-8.708h-6.966v-35.023
			h6.966c4.809,0,8.708-3.899,8.708-8.708s-3.899-8.708-8.708-8.708h-6.966V240.52h6.966c4.809,0,8.708-3.899,8.708-8.708
			s-3.899-8.708-8.708-8.708h-6.966v-35.023h6.966c4.809,0,8.708-3.899,8.708-8.708s-3.899-8.708-8.708-8.708h-6.966v-26.702h22.638
			v11.029c0,4.809,3.899,8.708,8.708,8.708s8.708-3.899,8.708-8.708v-11.029h37.732v11.029c0,4.809,3.899,8.708,8.708,8.708
			s8.708-3.899,8.708-8.708v-11.029h37.732v11.029c0,4.809,3.899,8.708,8.708,8.708s8.708-3.899,8.708-8.708v-11.029h37.732v11.029
			c0,4.809,3.899,8.708,8.708,8.708s8.708-3.899,8.708-8.708v-11.029H429.279z M241.198,126.549v-16.838h37.732v16.838H241.198z
			 M296.345,109.711h37.732v16.838h-37.732V109.711z M351.493,126.549v-16.838h37.732v16.838H351.493z M406.641,92.296v-8.702
			c0-4.809-3.899-8.708-8.708-8.708s-8.708,3.899-8.708,8.708v8.702h-37.732v-8.702c0-4.809-3.899-8.708-8.708-8.708
			s-8.708,3.899-8.708,8.708v8.702h-37.732v-8.702c0-4.809-3.899-8.708-8.708-8.708s-8.708,3.899-8.708,8.708v8.702h-37.732v-8.702
			c0-4.809-3.899-8.708-8.708-8.708c-4.809,0-8.708,3.899-8.708,8.708v8.702h-57.469V60.959h275.158v31.337H406.641z"/>
	</g>
</g>
<g>
	<g>
		<path d="M386.903,177.633H243.521c-4.809,0-8.708,3.899-8.708,8.708v143.382c0,4.809,3.899,8.708,8.708,8.708
			s8.708-3.899,8.708-8.708V195.049h125.966v32.238c0,4.809,3.899,8.708,8.708,8.708s8.708-3.899,8.708-8.708v-40.946
			C395.611,181.532,391.712,177.633,386.903,177.633z"/>
	</g>
</g>
<g>
	<g>
		<path d="M386.903,253.41c-4.809,0-8.708,3.899-8.708,8.708v58.898H270.518c-4.809,0-8.708,3.899-8.708,8.708
			s3.899,8.708,8.708,8.708h116.385c4.809,0,8.708-3.899,8.708-8.708v-67.606C395.611,257.308,391.712,253.41,386.903,253.41z"/>
	</g>
</g>
<g>
</g>
<g>
</g>
<g>
</g>
<g>
</g>
<g>
</g>
<g>
</g>
<g>
</g>
<g>
</g>
<g>
</g>
<g>
</g>
<g>
</g>
<g>
</g>
<g>
</g>
<g>
</g>
<g>
</g>
</svg>
