<?xml version="1.0" encoding="iso-8859-1"?>
<!-- Generator: Adobe Illustrator 19.0.0, SVG Export Plug-In . SVG Version: 6.00 Build 0)  -->
<svg version="1.1" id="Layer_1" xmlns="http://www.w3.org/2000/svg" xmlns:xlink="http://www.w3.org/1999/xlink" x="0px" y="0px"
	 viewBox="0 0 512.004 512.004" style="enable-background:new 0 0 512.004 512.004;" xml:space="preserve">
<g>
	<g>
		<path d="M506.934,177.061c-9.83-36.318-33.078-74.153-65.464-106.539c-32.387-32.381-70.222-55.627-106.536-65.457
			C296.875-5.235,264.729,0.286,244.41,20.61c0,0,0,0-0.001,0.001c-26.783,26.783-50.466,55.5-70.391,85.352
			c-2.741,4.106-1.633,9.656,2.472,12.397c1.526,1.018,3.25,1.505,4.954,1.505c2.887,0,5.721-1.396,7.443-3.977
			c10.627-15.921,22.375-31.511,35.12-46.649c-0.796,12.808,0.795,26.893,4.857,41.903c9.831,36.317,33.077,74.15,65.458,106.532
			c32.386,32.385,70.221,55.633,106.539,65.464c12.523,3.389,24.403,5.065,35.437,5.065c2.185,0,4.325-0.086,6.44-0.217
			c-40.975,34.435-85.207,61.515-127.835,77.934c-53.618,20.653-101.717,23.488-135.441,7.989
			c-9.306-4.275-17.541-9.961-24.478-16.898c-6.949-6.949-12.63-15.178-16.885-24.465c-20.381-44.34-8.515-113.725,31.741-185.606
			c2.411-4.307,0.875-9.754-3.431-12.166c-4.308-2.412-9.755-0.877-12.167,3.431c-42.035,75.057-54.533,145.99-34.838,196.006
			l-44.942,44.942c-18.779-12.373-43.873-10.213-60.384,6.299c-18.767,18.783-18.766,49.335,0.004,68.105
			c8.16,8.16,19.031,13.055,30.383,13.942c0.827,11.403,5.684,22.123,13.987,30.429c9.387,9.385,21.715,14.079,34.047,14.078
			c12.332,0,24.668-4.693,34.06-14.078c16.512-16.515,18.67-41.606,6.286-60.383l27.616-27.61c3.492-3.49,3.492-9.149,0.001-12.64
			s-9.151-3.491-12.64-0.001l-33.237,33.23c-0.03,0.03-0.055,0.062-0.083,0.093l-16.548,16.549
			c-3.491,3.491-3.491,9.151,0.001,12.641c1.745,1.745,4.033,2.617,6.32,2.617s4.575-0.872,6.321-2.618l9.169-9.169
			c5.567,11.317,3.594,25.209-5.84,34.644c-11.814,11.804-31.027,11.805-42.829,0.002c-6.794-6.794-9.916-16.167-8.567-25.715
			c0.393-2.783-0.545-5.588-2.534-7.575c-1.989-1.987-4.793-2.922-7.577-2.524c-9.537,1.359-18.896-1.759-25.693-8.555
			c-11.802-11.802-11.801-31.015,0-42.826c9.435-9.437,23.33-11.411,34.649-5.848l-9.174,9.174c-3.491,3.491-3.491,9.151,0,12.64
			c1.746,1.745,4.034,2.618,6.321,2.618s4.575-0.872,6.321-2.618l16.64-16.64c0.001-0.001,0.001-0.002,0.002-0.002
			c0.001-0.001,0.002-0.001,0.004-0.002l46.298-46.297c4.15,6.778,9.011,12.992,14.559,18.54
			c8.442,8.442,18.418,15.339,29.654,20.501c16.632,7.645,36.088,11.446,57.573,11.446c27.787,0,58.962-6.362,91.758-18.995
			c57.751-22.244,118.147-63.087,170.065-115.004c0,0,0.001-0.001,0.002-0.002C511.718,247.267,517.235,215.115,506.934,177.061z
			 M478.755,254.954c-15.607,15.602-41.607,19.484-73.223,10.925c-33.35-9.028-68.355-30.638-98.567-60.849
			c-30.209-30.209-51.817-65.212-60.844-98.562c-8.558-31.614-4.677-57.615,10.93-73.218c10.18-10.183,24.788-15.373,42.495-15.373
			c9.427,0,19.735,1.472,30.716,4.444c33.347,9.027,68.353,30.635,98.565,60.843c30.212,30.212,51.822,65.218,60.85,98.568
			C498.235,213.344,494.354,239.348,478.755,254.954z"/>
	</g>
</g>
<g>
	<g>
		<path d="M474.12,185.94c-8.175-30.219-28.837-63.527-56.688-91.378c-27.842-27.842-61.15-48.5-91.375-56.676
			c-25.426-6.901-46.427-4.434-57.604,6.759c-11.196,11.182-13.666,32.179-6.78,57.609c8.192,30.236,28.855,63.541,56.689,91.377
			c27.851,27.852,61.159,48.515,91.381,56.69c5.861,1.586,11.591,2.693,17.032,3.291c0.331,0.037,0.661,0.054,0.987,0.054
			c4.499,0,8.371-3.387,8.874-7.962c0.539-4.908-3.002-9.322-7.909-9.861c-4.526-0.497-9.342-1.431-14.317-2.778
			c-27.297-7.384-57.699-26.365-83.407-52.075c-25.696-25.695-44.676-56.097-52.076-83.409c-4.938-18.233-4.09-34.047,2.165-40.296
			c6.243-6.251,22.054-7.092,40.29-2.145c27.308,7.387,57.708,26.363,83.407,52.061c25.71,25.71,44.69,56.111,52.075,83.409
			c4.938,18.241,4.094,34.06-2.15,40.303c-3.492,3.491-3.492,9.151-0.001,12.641c3.491,3.49,9.151,3.491,12.64,0
			C478.537,232.371,481.003,211.371,474.12,185.94z"/>
	</g>
</g>
<g>
	<g>
		<path d="M401.528,165.339c-7.005-10.54-15.339-20.666-24.769-30.096c-9.431-9.432-19.556-17.765-30.094-24.768
			c-3.544-2.357-8.258-1.884-11.268,1.124c-3.008,3.009-3.479,7.723-1.123,11.268c7.007,10.543,15.34,20.668,24.767,30.094
			c9.428,9.428,19.554,17.761,30.095,24.769c1.511,1.003,3.233,1.495,4.945,1.495c2.309,0,4.596-0.89,6.324-2.617
			C403.413,173.598,403.884,168.883,401.528,165.339z"/>
	</g>
</g>
<g>
	<g>
		<circle cx="279.099" cy="350.187" r="8.939"/>
	</g>
</g>
<g>
	<g>
		<circle cx="243.261" cy="361.235" r="8.939"/>
	</g>
</g>
<g>
	<g>
		<circle cx="209.891" cy="190.402" r="8.939"/>
	</g>
</g>
<g>
	<g>
		<circle cx="172.552" cy="189.616" r="8.939"/>
	</g>
</g>
<g>
	<g>
		<circle cx="194.791" cy="157.83" r="8.939"/>
	</g>
</g>
<g>
</g>
<g>
</g>
<g>
</g>
<g>
</g>
<g>
</g>
<g>
</g>
<g>
</g>
<g>
</g>
<g>
</g>
<g>
</g>
<g>
</g>
<g>
</g>
<g>
</g>
<g>
</g>
<g>
</g>
</svg>
