<?xml version="1.0" encoding="iso-8859-1"?>
<!-- Generator: Adobe Illustrator 19.0.0, SVG Export Plug-In . SVG Version: 6.00 Build 0)  -->
<svg version="1.1" id="Layer_1" xmlns="http://www.w3.org/2000/svg" xmlns:xlink="http://www.w3.org/1999/xlink" x="0px" y="0px"
	 viewBox="0 0 512 512" style="enable-background:new 0 0 512 512;" xml:space="preserve">
<g>
	<g>
		<path d="M509.913,315.538L374.969,164.881c-3.013-3.363-8.184-3.649-11.548-0.636l-26.523,23.751l-153.955-71.872
			c0.449-2.23,0.688-4.535,0.688-6.896c0-19.199-15.62-34.818-34.818-34.818s-34.818,15.62-34.818,34.818
			c0,10.201,4.41,19.393,11.425,25.766L30.136,309.444c-12.189,0.54-22.915,7.931-27.717,19.631
			c-5.502,13.408-1.418,28.273,10.222,37.034l0.712,0.538c12.204,9.133,25.067,17.542,38.231,24.995
			c1.273,0.721,2.657,1.063,4.022,1.063c2.85,0,5.619-1.493,7.124-4.15c2.226-3.93,0.843-8.921-3.087-11.147
			c-12.563-7.113-24.839-15.14-36.477-23.848l-0.748-0.564c-6.836-5.146-6.997-12.523-4.868-17.712
			c2.175-5.299,7.586-10.547,16.251-9.38c14.419,1.941,29.123,2.983,43.833,3.136l-2.708,91.751
			c-0.133,4.515,3.419,8.282,7.933,8.415l35.876,1.058c0.083,0.002,0.164,0.003,0.245,0.003c4.021,0,7.39-2.922,8.049-6.803
			c32.251,9.38,65.795,14.126,99.424,14.126c21.434,0,42.905-1.922,64.084-5.787c55.655-10.155,108.368-33.574,152.957-67.868
			l5.51,6.152c1.447,1.616,3.476,2.591,5.643,2.711c0.152,0.008,0.3,0.012,0.45,0.012c2.009,0,3.953-0.739,5.457-2.087l48.721-43.64
			C512.643,324.073,512.927,318.902,509.913,315.538z M375.519,190.01l47.718,53.275l-52.536,7.559L375.519,190.01z
			 M429.053,258.974l-11.134,51.886l-39.893-44.544L429.053,258.974z M359.107,190.065l-4.011,50.647l-22.981-25.659
			c-0.001-0.001-0.002-0.002-0.003-0.003l-0.403-0.45L359.107,190.065z M148.813,90.767c10.179,0,18.461,8.282,18.461,18.461
			c0,10.179-8.282,18.461-18.461,18.461s-18.461-8.282-18.461-18.461C130.352,99.049,138.633,90.767,148.813,90.767z
			 M287.603,415.713c-53.177,9.704-108.24,6.567-159.672-9.033l0.875-11.022c0.358-4.502-3.003-8.442-7.506-8.8
			c-4.498-0.363-8.442,3.003-8.8,7.506l-1.454,19.31l-19.528-0.576l2.897-98.181l19.525,0.576l-1.462,54.514
			c-0.12,4.516,3.443,8.273,7.958,8.393c4.501,0.098,8.273-3.443,8.393-7.958l1.192-44.717
			c52.557-7.234,103.412-26.296,147.495-55.357c3.771-2.486,4.813-7.559,2.327-11.33c-2.485-3.772-7.558-4.812-11.33-2.327
			c-41.298,27.225-88.831,45.256-138.019,52.431l0.04-1.34c0.065-2.169-0.735-4.273-2.222-5.854
			c-1.488-1.579-3.543-2.502-5.711-2.566l-35.876-1.058c-4.522-0.159-8.282,3.419-8.416,7.933l-0.19,6.431
			c-10.115-0.095-20.226-0.631-30.236-1.617l91.885-168.228c2.886,0.777,5.917,1.198,9.046,1.198
			c10.994,0,20.807-5.127,27.193-13.109l147.642,68.924l-8.947,8.012c-1.616,1.448-2.592,3.479-2.71,5.645
			c-0.119,2.167,0.628,4.292,2.076,5.907l0.606,0.677c-7.377,6.979-15.095,13.66-23.029,19.915
			c-3.547,2.796-4.157,7.938-1.361,11.486c1.614,2.048,4.01,3.117,6.429,3.117c1.772,0,3.558-0.574,5.057-1.756
			c8.203-6.465,16.186-13.366,23.822-20.571l106.962,119.425C390.227,384.023,340.299,406.098,287.603,415.713z M455.737,353.085
			l-16.222-18.112l40.495-3.63L455.737,353.085z M432.871,319.145l11.27-52.522l42.71,47.682L432.871,319.145z"/>
	</g>
</g>
<g>
</g>
<g>
</g>
<g>
</g>
<g>
</g>
<g>
</g>
<g>
</g>
<g>
</g>
<g>
</g>
<g>
</g>
<g>
</g>
<g>
</g>
<g>
</g>
<g>
</g>
<g>
</g>
<g>
</g>
</svg>
