<?xml version="1.0" encoding="iso-8859-1"?>
<!-- Generator: Adobe Illustrator 19.0.0, SVG Export Plug-In . SVG Version: 6.00 Build 0)  -->
<svg version="1.1" id="Layer_1" xmlns="http://www.w3.org/2000/svg" xmlns:xlink="http://www.w3.org/1999/xlink" x="0px" y="0px"
	 viewBox="0 0 511.997 511.997" style="enable-background:new 0 0 511.997 511.997;" xml:space="preserve">
<g>
	<g>
		<path d="M474.563,7.39c-0.404-3.2-2.596-5.89-5.647-6.934c-3.05-1.047-6.431-0.261-8.712,2.019l-138.99,138.99
			c-3.3,3.3-3.3,8.651,0,11.95c3.3,3.299,8.65,3.3,11.951,0L459.404,27.177c1.849,33.034-2.714,66.503-13.418,97.777
			c-12.616,36.863-33.846,70.91-61.396,98.458l-50.203,50.204l-22.885-22.885c-3.301-3.3-8.651-3.3-11.951,0
			c-3.3,3.3-3.3,8.651,0,11.95l22.886,22.885l-11.799,11.799l-60.712-60.711l58.735-58.734c3.3-3.3,3.3-8.651,0-11.95
			c-3.301-3.3-8.651-3.3-11.951,0l-94.999,94.999l-0.42-0.677c-2.461-3.966-7.67-5.185-11.636-2.725
			c-3.966,2.461-5.186,7.669-2.726,11.635l2.507,4.04l-55.806,55.806l-4.04-2.507c-3.967-2.461-9.176-1.24-11.636,2.726
			c-2.461,3.966-1.24,9.176,2.726,11.636l0.677,0.42l-16.167,16.167l-0.42-0.677c-2.461-3.966-7.668-5.186-11.636-2.726
			c-3.966,2.461-5.186,7.669-2.725,11.635l2.507,4.04l-55.149,55.149c-3.3,3.3-3.3,8.651,0,11.95l72.66,72.66
			c1.651,1.649,3.814,2.475,5.976,2.475s4.325-0.825,5.976-2.475l35.329-35.328l0.419,0.676c1.6,2.579,4.361,3.996,7.188,3.996
			c1.521,0,3.06-0.41,4.447-1.271c3.966-2.461,5.186-7.67,2.725-11.636l-2.507-4.039l55.806-55.806l4.04,2.507
			c1.387,0.861,2.927,1.271,4.447,1.271c2.827,0,5.588-1.417,7.188-3.996c2.461-3.966,1.24-9.176-2.726-11.635l-0.676-0.42
			l16.168-16.168l0.42,0.677c1.6,2.579,4.362,3.996,7.188,3.996c1.521,0,3.061-0.41,4.447-1.271
			c3.966-2.461,5.186-7.671,2.726-11.635l-2.507-4.04l130.037-130.037c29.361-29.361,51.989-65.648,65.435-104.935
			C475.425,91.136,479.776,48.59,474.563,7.39z M116.404,491.599l-60.711-60.711l9.006-9.006l60.711,60.711L116.404,491.599z
			 M137.364,470.64l-60.711-60.712l25.414-25.414l46.49,74.932L137.364,470.64z M160.831,447.172l-46.49-74.932l21.766-21.766
			l74.932,46.49L160.831,447.172z M257.351,350.651l-11.078-17.859c-2.461-3.966-7.673-5.185-11.635-2.726
			c-3.966,2.461-5.186,7.671-2.726,11.636l13.168,21.222l-21.767,21.767l-74.932-46.49l50.207-50.207l19.243,31.017
			c1.6,2.579,4.361,3.996,7.188,3.996c1.521,0,3.06-0.41,4.447-1.271c3.966-2.461,5.186-7.669,2.726-11.636l-21.331-34.38
			l27.112-27.112l60.711,60.711L257.351,350.651z"/>
	</g>
</g>
<g>
</g>
<g>
</g>
<g>
</g>
<g>
</g>
<g>
</g>
<g>
</g>
<g>
</g>
<g>
</g>
<g>
</g>
<g>
</g>
<g>
</g>
<g>
</g>
<g>
</g>
<g>
</g>
<g>
</g>
</svg>
