<?xml version="1.0" encoding="iso-8859-1"?>
<!-- Generator: Adobe Illustrator 19.0.0, SVG Export Plug-In . SVG Version: 6.00 Build 0)  -->
<svg version="1.1" id="Layer_1" xmlns="http://www.w3.org/2000/svg" xmlns:xlink="http://www.w3.org/1999/xlink" x="0px" y="0px"
	 viewBox="0 0 512.003 512.003" style="enable-background:new 0 0 512.003 512.003;" xml:space="preserve">
<g>
	<g>
		<path d="M510.734,216.286c-19.785-31.392-44.896-58.595-74.635-80.851c-22.328-16.709-49.974-24.779-77.842-22.731
			c-27.828,2.047-54.025,14.044-73.763,33.782l-28.491,28.492l-28.492-28.492c-19.738-19.738-45.934-31.735-73.763-33.782
			c-27.861-2.046-55.514,6.024-77.842,22.732c-4.097,3.068-8.17,6.279-12.101,9.547c-3.501,2.909-3.98,8.105-1.071,11.606
			c2.909,3.502,8.105,3.98,11.607,1.071c3.717-3.09,7.568-6.127,11.442-9.027c19.143-14.326,42.854-21.255,66.757-19.49
			c23.886,1.757,46.373,12.055,63.315,28.999l34.32,34.32c1.546,1.546,3.642,2.414,5.828,2.414c2.187,0,4.281-0.868,5.828-2.414
			l34.318-34.32c16.943-16.943,39.43-27.242,63.316-28.999c23.905-1.754,47.612,5.164,66.756,19.49
			c24.058,18.003,44.898,39.439,62.134,63.839h-45.564c-5.494-6.251-11.317-12.283-17.39-17.939
			c-3.329-3.102-8.544-2.916-11.648,0.413c-3.102,3.331-2.916,8.546,0.414,11.648c4.82,4.49,9.486,9.224,13.93,14.128
			c-33.735,37.357-78.674,62.648-128.021,72.096v-36.563c0-18.123,7.058-35.161,19.872-47.976
			c18.783-18.784,46.987-24.893,71.857-15.559c4.259,1.599,9.011-0.558,10.61-4.821c1.6-4.261-0.559-9.011-4.821-10.611
			c-30.907-11.596-65.958-4.007-89.302,19.336c-15.927,15.927-24.699,37.105-24.699,59.631v66.266c0,4.551,3.689,8.241,8.241,8.241
			s8.241-3.69,8.241-8.241v-12.953c17.127-3.054,33.775-7.886,49.701-14.359l10.986,34.194c-21.118,8.348-43.367,14.2-66.354,17.303
			c-3.472,0.469-6.269,3.081-6.972,6.514l-4.569,22.315c-0.901,4.403-4.818,7.599-9.313,7.599h-35.113
			c-4.495,0-8.41-3.195-9.313-7.599l-4.569-22.316c-0.703-3.433-3.5-6.045-6.972-6.514c-22.985-3.103-45.235-8.957-66.354-17.304
			l10.985-34.193c15.926,6.472,32.573,11.306,49.701,14.359v12.953c0,4.551,3.689,8.241,8.241,8.241s8.241-3.69,8.241-8.241v-66.266
			c0-22.526-8.771-43.702-24.699-59.631c-15.53-15.529-36.175-24.298-58.133-24.692c-21.98-0.396-42.907,7.632-58.975,22.601
			c-6.073,5.657-11.895,11.688-17.387,17.936l-45.546-0.022c6.781-9.583,14.159-18.777,22.055-27.441
			c3.066-3.365,2.823-8.576-0.541-11.642c-3.366-3.065-8.577-2.824-11.643,0.542c-11.957,13.123-22.814,27.382-32.266,42.38
			c-1.692,2.686-1.692,6.104,0,8.788c46.696,74.089,122.369,123.818,208.306,137.122l3.409,16.643
			c2.464,12.039,13.17,20.775,25.46,20.775h35.113c12.287,0,22.994-8.737,25.46-20.775l3.409-16.643
			c85.937-13.305,161.611-63.033,208.306-137.122C512.426,222.39,512.426,218.971,510.734,216.286z M97.837,206.593
			c26.863-25.023,68.249-24.282,94.218,1.686c12.814,12.815,19.872,29.853,19.872,47.976v36.563
			c-49.347-9.448-94.286-34.739-128.021-72.096C88.349,215.818,93.015,211.084,97.837,206.593z M23.683,228.929l45.504,0.022
			c7.98,9.11,16.567,17.579,25.689,25.352l-23.564,26.916C53.502,265.981,37.481,248.46,23.683,228.929z M136.032,322.85
			c-18.371-8.539-35.758-19.024-51.884-31.271l23.636-26.997c12.342,9.171,25.502,17.156,39.298,23.872L136.032,322.85z
			 M375.975,322.852l-11.051-34.399c13.797-6.716,26.957-14.701,39.298-23.872l23.638,26.999
			C411.734,303.829,394.347,314.314,375.975,322.852z M440.695,281.221l-23.566-26.918c9.121-7.773,17.709-16.241,25.688-25.35
			h45.489C474.514,248.477,458.498,265.99,440.695,281.221z"/>
	</g>
</g>
<g>
	<g>
		<circle cx="256.007" cy="323.464" r="8.241"/>
	</g>
</g>
<g>
	<g>
		<circle cx="256.007" cy="266.083" r="8.241"/>
	</g>
</g>
<g>
	<g>
		<circle cx="355.462" cy="152.751" r="8.241"/>
	</g>
</g>
<g>
	<g>
		<circle cx="156.542" cy="152.751" r="8.241"/>
	</g>
</g>
<g>
</g>
<g>
</g>
<g>
</g>
<g>
</g>
<g>
</g>
<g>
</g>
<g>
</g>
<g>
</g>
<g>
</g>
<g>
</g>
<g>
</g>
<g>
</g>
<g>
</g>
<g>
</g>
<g>
</g>
</svg>
