<?xml version="1.0" encoding="iso-8859-1"?>
<!-- Generator: Adobe Illustrator 19.0.0, SVG Export Plug-In . SVG Version: 6.00 Build 0)  -->
<svg version="1.1" id="Layer_1" xmlns="http://www.w3.org/2000/svg" xmlns:xlink="http://www.w3.org/1999/xlink" x="0px" y="0px"
	 viewBox="0 0 511.998 511.998" style="enable-background:new 0 0 511.998 511.998;" xml:space="preserve">
<g>
	<g>
		<path d="M509.774,386.311c-8.402-19.627-20.497-37.064-35.95-51.83c-15.448-14.761-33.41-26.055-53.387-33.572l-113.659-42.764
			c-11.144-4.19-19.715-13.079-23.514-24.384l-38.835-115.7c-1.211-3.607-4.482-6.072-8.237-6.326l-0.329-43.758
			c-0.021-2.684-1.193-5.23-3.22-6.989c-2.027-1.76-4.72-2.563-7.373-2.208L112.112,73.945L70.359,60.4
			c-2.659-0.863-5.564-0.49-7.921,1.015c-2.355,1.505-3.914,3.986-4.249,6.761l-5.241,43.509H45.88
			c-4.657,0-8.604,3.426-9.259,8.037l-6.986,49.221c-0.726,5.113,2.831,9.846,7.944,10.571c5.117,0.726,9.846-2.831,10.571-7.944
			l5.845-41.184h174.842l9.994,29.776l-116.868,91.197c-2.112,1.648-3.416,4.124-3.581,6.799c-0.165,2.674,0.827,5.291,2.722,7.185
			l31.994,31.994l-30.987,23.241c-4.131,3.098-4.968,8.961-1.87,13.091c1.838,2.45,4.646,3.74,7.488,3.74
			c1.952,0,3.921-0.61,5.603-1.87l33.124-24.843l28.793,28.794c1.785,1.785,4.177,2.739,6.614,2.739
			c1.101,0,2.211-0.195,3.279-0.595l59.323-22.23c4.835-1.812,7.287-7.201,5.475-12.038c-1.812-4.836-7.2-7.289-12.038-5.475
			l-53.686,20.117l-22.648-22.648l28.793-21.595c4.132-3.098,4.968-8.961,1.87-13.091c-3.098-4.132-8.961-4.968-13.091-1.87
			l-30.93,23.198l-26.404-26.404l103.335-80.637l20.393,60.755c5.598,16.659,18.232,29.757,34.659,35.933l13.842,5.208
			l-32.264,12.09c-4.835,1.812-7.287,7.201-5.475,12.038c1.406,3.755,4.971,6.072,8.757,6.072c1.091,0,2.199-0.192,3.28-0.597
			l52.295-19.596l73.219,27.55c17.607,6.624,33.437,16.58,47.053,29.59c13.616,13.011,24.275,28.377,31.678,45.672
			c0.514,1.198,0.687,2.436,0.515,3.683c-0.415,3.025-2.939,6.087-6.957,6.087h-49.16c-5.164,0-9.351,4.187-9.351,9.351
			s4.187,9.351,9.351,9.351h49.16c2.513,0,4.952-0.382,7.269-1.072l-0.112,8.781c-0.034,2.617-2.193,4.747-4.813,4.747H23.824
			c-2.653,0-4.813-2.153-4.813-4.8v-14.296c6.508,4.205,14.221,6.64,22.392,6.64h360.668c5.164,0,9.351-4.187,9.351-9.351
			s-4.187-9.351-9.351-9.351H41.404c-11.066,0-20.591-8.117-22.392-18.973v-7.583l23.704-167.011
			c0.726-5.113-2.831-9.846-7.944-10.571c-5.113-0.722-9.846,2.831-10.571,7.944L0.401,374.926
			c-0.51,3.637-0.526,7.279-0.091,10.831V429.8c0,12.959,10.549,23.502,23.514,23.502h464.661c12.801,0,23.348-10.411,23.513-23.208
			C512,430.094,511.28,389.825,509.774,386.311z M71.785,111.686l3.613-29.99l32.775,10.633c0.128,0.045,0.258,0.087,0.39,0.127
			l59.248,19.23H71.785z M153.258,87.3l63.983-8.575l0.221,29.414L153.258,87.3z"/>
	</g>
</g>
<g>
</g>
<g>
</g>
<g>
</g>
<g>
</g>
<g>
</g>
<g>
</g>
<g>
</g>
<g>
</g>
<g>
</g>
<g>
</g>
<g>
</g>
<g>
</g>
<g>
</g>
<g>
</g>
<g>
</g>
</svg>
