<?xml version="1.0" encoding="iso-8859-1"?>
<!-- Generator: Adobe Illustrator 19.0.0, SVG Export Plug-In . SVG Version: 6.00 Build 0)  -->
<svg version="1.1" id="Layer_1" xmlns="http://www.w3.org/2000/svg" xmlns:xlink="http://www.w3.org/1999/xlink" x="0px" y="0px"
	 viewBox="0 0 511.999 511.999" style="enable-background:new 0 0 511.999 511.999;" xml:space="preserve">
<g>
	<g>
		<path d="M256.001,37.421c-19.525,0-35.41,15.885-35.41,35.41c0,19.519,15.885,35.397,35.41,35.397s35.41-15.879,35.41-35.397
			C291.411,53.306,275.526,37.421,256.001,37.421z M256.001,88.893c-8.864,0-16.075-7.205-16.075-16.062
			c0-8.864,7.211-16.075,16.075-16.075c8.864,0,16.075,7.211,16.075,16.075C272.075,81.689,264.864,88.893,256.001,88.893z"/>
	</g>
</g>
<g>
	<g>
		<path d="M481.714,12.246h-34.933c-5.339,0-9.668,4.329-9.668,9.668s4.329,9.668,9.668,9.668h25.266v82.5h-156.09
			c8.249-12.018,12.876-26.392,12.876-41.25c0-14.863-4.625-29.238-12.869-41.25h100.524c5.339,0,9.668-4.329,9.668-9.668
			s-4.329-9.668-9.668-9.668H296.426C284.457,4.227,270.553,0,256.001,0c-14.555,0-28.462,4.229-40.426,12.246H30.287
			c-5.339,0-9.668,4.329-9.668,9.668v101.835c0,5.339,4.329,9.668,9.668,9.668h0.76v254.06c0,2.01,0.627,3.97,1.792,5.607
			l54.14,76.041c1.814,2.547,4.749,4.061,7.876,4.061s6.062-1.513,7.876-4.061l22.774-31.988l35.247,49.505
			c1.814,2.548,4.748,4.061,7.875,4.061s6.062-1.513,7.876-4.061l28.229-39.649l43.391,60.944c1.814,2.547,4.749,4.061,7.876,4.061
			c3.127,0,6.062-1.513,7.876-4.061l43.391-60.944l28.229,39.649c1.815,2.548,4.749,4.061,7.876,4.061s6.062-1.513,7.875-4.061
			l35.247-49.505l22.774,31.988c1.814,2.547,4.749,4.061,7.876,4.061c3.127,0,6.062-1.513,7.876-4.061l54.14-76.041
			c1.165-1.638,1.792-3.598,1.792-5.607v-254.06h0.76c5.339,0,9.668-4.329,9.668-9.668V21.914
			C491.382,16.575,487.054,12.246,481.714,12.246z M168.63,464.367l-44.472-62.464V231.205c0-5.339-4.329-9.668-9.668-9.668
			c-5.339,0-9.668,4.329-9.668,9.668v173.79c0,2.011,0.626,3.973,1.794,5.61l7.023,9.864l-18.782,26.38l-44.472-62.462v-250.97
			h54.437v61.05c0,5.339,4.329,9.668,9.668,9.668c5.339,0,9.668-4.329,9.668-9.668v-61.05h68.036v292.873
			c0,1.328,0.298,2.625,0.82,3.83L168.63,464.367z M39.955,114.081v-82.5h156.084c-8.245,12.013-12.87,26.387-12.87,41.25
			c0,14.858,4.628,29.233,12.876,41.25H39.955z M202.505,72.832c0-16.96,8.164-33.082,21.846-43.133
			c9.206-6.779,20.151-10.363,31.65-10.363s22.444,3.584,31.659,10.369c13.673,10.044,21.837,26.165,21.837,43.127
			c0,16.948-8.165,33.072-21.84,43.129c-0.001,0.001-0.003,0.003-0.005,0.004c-9.206,6.779-20.151,10.363-31.65,10.363
			s-22.444-3.584-31.655-10.367C210.67,105.904,202.505,89.78,202.505,72.832z M387.845,401.903l-44.474,62.464l-24.383-34.246
			c0.522-1.205,0.82-2.502,0.82-3.83v-94.539c0-5.339-4.329-9.668-9.668-9.668c-5.339,0-9.668,4.329-9.668,9.668v91.447
			l-44.472,62.464l-44.472-62.464V133.417h4.048c11.969,8.019,25.873,12.246,40.425,12.246c14.552,0,28.456-4.227,40.425-12.246
			h4.048v170.618c0,5.339,4.329,9.668,9.668,9.668c5.339,0,9.668-4.329,9.668-9.668V133.417h68.036V401.903z M461.618,384.387
			l-44.472,62.462l-18.782-26.38l7.023-9.864c1.167-1.638,1.794-3.599,1.794-5.61V133.417h54.437V384.387z"/>
	</g>
</g>
<g>
	<g>
		<path d="M255.997,377.366c-16.348,0-29.648,13.3-29.648,29.648c0,16.348,13.3,29.648,29.648,29.648
			c16.348,0,29.648-13.3,29.648-29.648C285.645,390.666,272.345,377.366,255.997,377.366z M255.997,417.327
			c-5.686,0-10.312-4.626-10.312-10.312s4.626-10.312,10.312-10.312c5.686,0,10.313,4.626,10.313,10.312
			S261.683,417.327,255.997,417.327z"/>
	</g>
</g>
<g>
	<g>
		<path d="M352.19,63.164c-5.337,0-9.668,4.318-9.668,9.668c0,5.337,4.331,9.668,9.668,9.668c5.35,0,9.668-4.331,9.668-9.668
			C361.858,67.482,357.54,63.164,352.19,63.164z"/>
	</g>
</g>
<g>
	<g>
		<path d="M385.229,63.164c-5.35,0-9.668,4.318-9.668,9.668c0,5.337,4.318,9.668,9.668,9.668c5.337,0,9.668-4.331,9.668-9.668
			C394.896,67.482,390.565,63.164,385.229,63.164z"/>
	</g>
</g>
<g>
	<g>
		<path d="M418.254,63.164c-5.337,0-9.668,4.318-9.668,9.668c0,5.337,4.331,9.668,9.668,9.668c5.35,0,9.668-4.331,9.668-9.668
			C427.922,67.482,423.604,63.164,418.254,63.164z"/>
	</g>
</g>
<g>
	<g>
		<path d="M126.773,63.164c-5.35,0-9.668,4.318-9.668,9.668c0,5.337,4.318,9.668,9.668,9.668c5.337,0,9.668-4.331,9.668-9.668
			C136.441,67.482,132.11,63.164,126.773,63.164z"/>
	</g>
</g>
<g>
	<g>
		<path d="M93.734,63.164c-5.337,0-9.668,4.318-9.668,9.668c0,5.337,4.331,9.668,9.668,9.668c5.337,0,9.668-4.331,9.668-9.668
			C103.402,67.482,99.071,63.164,93.734,63.164z"/>
	</g>
</g>
<g>
	<g>
		<path d="M60.709,63.164c-5.337,0-9.668,4.318-9.668,9.668c0,5.337,4.331,9.668,9.668,9.668s9.668-4.331,9.668-9.668
			C70.377,67.482,66.045,63.164,60.709,63.164z"/>
	</g>
</g>
<g>
	<g>
		<path d="M159.798,63.164c-5.337,0-9.668,4.318-9.668,9.668c0,5.337,4.331,9.668,9.668,9.668c5.337,0,9.668-4.331,9.668-9.668
			C169.466,67.482,165.135,63.164,159.798,63.164z"/>
	</g>
</g>
<g>
	<g>
		<path d="M451.293,63.164c-5.337,0-9.668,4.318-9.668,9.668c0,5.337,4.331,9.668,9.668,9.668c5.337,0,9.668-4.331,9.668-9.668
			C460.961,67.482,456.629,63.164,451.293,63.164z"/>
	</g>
</g>
<g>
	<g>
		<path d="M424.235,340.981c-5.337,0-9.668,4.318-9.668,9.668c0,5.337,4.331,9.668,9.668,9.668c5.337,0,9.668-4.331,9.668-9.668
			C433.903,345.298,429.572,340.981,424.235,340.981z"/>
	</g>
</g>
<g>
	<g>
		<path d="M424.235,380.104c-5.337,0-9.668,4.318-9.668,9.668c0,5.337,4.331,9.668,9.668,9.668c5.337,0,9.668-4.331,9.668-9.668
			C433.903,384.421,429.572,380.104,424.235,380.104z"/>
	</g>
</g>
<g>
	<g>
		<path d="M87.766,340.981c-5.337,0-9.668,4.318-9.668,9.668c0,5.337,4.331,9.668,9.668,9.668c5.337,0,9.668-4.331,9.668-9.668
			C97.434,345.298,93.103,340.981,87.766,340.981z"/>
	</g>
</g>
<g>
	<g>
		<path d="M87.766,380.104c-5.337,0-9.668,4.318-9.668,9.668c0,5.337,4.331,9.668,9.668,9.668c5.337,0,9.668-4.331,9.668-9.668
			C97.434,384.421,93.103,380.104,87.766,380.104z"/>
	</g>
</g>
<g>
	<g>
		<path d="M168.629,326.349c-5.337,0-9.668,4.318-9.668,9.668c0,5.337,4.331,9.668,9.668,9.668s9.668-4.331,9.668-9.668
			C178.296,330.667,173.965,326.349,168.629,326.349z"/>
	</g>
</g>
<g>
	<g>
		<path d="M168.629,365.473c-5.337,0-9.668,4.318-9.668,9.668c0,5.337,4.331,9.668,9.668,9.668s9.668-4.331,9.668-9.668
			C178.296,369.79,173.965,365.473,168.629,365.473z"/>
	</g>
</g>
<g>
	<g>
		<path d="M256.001,300.22c-5.337,0-9.668,4.318-9.668,9.668c0,5.337,4.331,9.668,9.668,9.668s9.668-4.331,9.668-9.668
			C265.669,304.538,261.337,300.22,256.001,300.22z"/>
	</g>
</g>
<g>
	<g>
		<path d="M256.001,339.344c-5.337,0-9.668,4.318-9.668,9.668c0,5.337,4.331,9.668,9.668,9.668s9.668-4.331,9.668-9.668
			C265.669,343.661,261.337,339.344,256.001,339.344z"/>
	</g>
</g>
<g>
	<g>
		<path d="M343.373,326.349c-5.337,0-9.668,4.318-9.668,9.668c0,5.337,4.331,9.668,9.668,9.668c5.337,0,9.668-4.331,9.668-9.668
			C353.041,330.667,348.71,326.349,343.373,326.349z"/>
	</g>
</g>
<g>
	<g>
		<path d="M343.373,365.473c-5.337,0-9.668,4.318-9.668,9.668c0,5.337,4.331,9.668,9.668,9.668c5.337,0,9.668-4.331,9.668-9.668
			C353.041,369.79,348.71,365.473,343.373,365.473z"/>
	</g>
</g>
<g>
</g>
<g>
</g>
<g>
</g>
<g>
</g>
<g>
</g>
<g>
</g>
<g>
</g>
<g>
</g>
<g>
</g>
<g>
</g>
<g>
</g>
<g>
</g>
<g>
</g>
<g>
</g>
<g>
</g>
</svg>
