<?xml version="1.0" encoding="iso-8859-1"?>
<!-- Generator: Adobe Illustrator 19.0.0, SVG Export Plug-In . SVG Version: 6.00 Build 0)  -->
<svg version="1.1" id="Layer_1" xmlns="http://www.w3.org/2000/svg" xmlns:xlink="http://www.w3.org/1999/xlink" x="0px" y="0px"
	 viewBox="0 0 512 512" style="enable-background:new 0 0 512 512;" xml:space="preserve">
<g>
	<g>
		<path d="M233.213,257.89h-71.796c-4.622,0-8.366,3.746-8.366,8.366c0,24.408,19.857,44.264,44.265,44.264
			s44.265-19.857,44.265-44.264C241.58,261.636,237.834,257.89,233.213,257.89z M197.315,293.788
			c-12.265,0-22.683-8.062-26.233-19.165h52.464C219.998,285.726,209.58,293.788,197.315,293.788z"/>
	</g>
</g>
<g>
	<g>
		<path d="M350.574,257.89h-71.796c-4.622,0-8.366,3.746-8.366,8.366c0,24.408,19.857,44.264,44.265,44.264
			c24.408,0,44.264-19.856,44.264-44.264C358.94,261.636,355.195,257.89,350.574,257.89z M314.674,293.788
			c-12.265,0-22.682-8.062-26.231-19.165h52.464C337.357,285.726,326.939,293.788,314.674,293.788z"/>
	</g>
</g>
<g>
	<g>
		<path d="M449.095,0c-4.622,0-8.366,3.746-8.366,8.366c0,40.627-33.057,73.68-73.691,73.68h-28.022
			c-14.282-11.964-30.99-20.704-48.861-25.592C288.656,38.916,273.914,25.099,256,25.099c-17.921,0-32.667,13.817-34.167,31.355
			c-19.367,5.299-37.364,15.112-52.372,28.644c-15.395,13.86-27.211,31.197-34.461,50.426h-6.18
			c-31.732,0-57.55-25.812-57.55-57.539V60.71c16.407,23.024,43.326,38.069,73.691,38.069c4.622,0,8.366-3.746,8.366-8.366
			s-3.745-8.366-8.366-8.366c-40.634,0-73.691-33.053-73.691-73.68C71.27,3.746,67.525,0,62.904,0c-4.622,0-8.366,3.746-8.366,8.366
			v69.62c0,40.953,33.323,74.271,74.282,74.271h1.12c-0.699,3.063-1.288,6.152-1.764,9.259h-5.826c-4.622,0-8.366,3.746-8.366,8.366
			v60.472c0,4.62,3.745,8.366,8.366,8.366h4.318v26.505c0,4.62,3.745,8.366,8.366,8.366s8.366-3.746,8.366-8.366v-26.505h225.19
			v73.635c0,11.275-9.173,20.447-20.446,20.447c-9.382,0-17.014,7.632-17.014,17.014v29.812h-15.735v-9.293
			c0-4.62-3.745-8.366-8.366-8.366c-4.622,0-8.366,3.746-8.366,8.366v9.293h-17.289v-9.293c0-4.62-3.745-8.366-8.366-8.366
			c-4.622,0-8.366,3.746-8.366,8.366v9.293h-17.288v-9.293c0-4.62-3.745-8.366-8.366-8.366c-4.622,0-8.366,3.746-8.366,8.366v9.293
			h-17.289v-9.293c0-4.62-3.745-8.366-8.366-8.366c-4.622,0-8.366,3.746-8.366,8.366v9.293h-15.733v-29.812
			c0-9.382-7.632-17.014-17.025-17.014c-11.269,0-20.436-9.168-20.436-20.436v-21.485c0-4.62-3.745-8.366-8.366-8.366
			c-4.622,0-8.366,3.746-8.366,8.366v21.485c0,20.495,16.674,37.169,37.18,37.169c0.155,0,0.281,0.126,0.281,0.281v38.136
			c0,0.015-0.002,0.029-0.002,0.044c0,38.589,29.115,70.487,66.528,74.931v40.705c0,4.62,3.745,8.366,8.366,8.366
			c4.622,0,8.366-3.746,8.366-8.366v-40.156h17.215v40.156c0,4.62,3.745,8.366,8.366,8.366s8.366-3.746,8.366-8.366v-40.705
			c37.413-4.443,66.528-36.341,66.528-74.931v-0.001v-38.179c0-0.155,0.126-0.281,0.281-0.281c20.501,0,37.179-16.679,37.179-37.18
			v-73.635h4.315c4.622,0,8.366-3.746,8.366-8.366v-60.472c0-4.62-3.745-8.366-8.366-8.366h-5.827
			c-0.475-3.107-1.063-6.196-1.764-9.259h1.131c40.96,0,74.282-33.318,74.282-74.271V8.366C457.462,3.746,453.717,0,449.095,0z
			 M281.335,446.05v-9.345c0-4.62-3.745-8.366-8.366-8.366c-4.622,0-8.366,3.746-8.366,8.366v10.039h-17.214v-10.039
			c0-4.62-3.745-8.366-8.366-8.366s-8.366,3.746-8.366,8.366v9.345c-25.434-3.907-45.549-24.171-49.201-49.687h15.142v9.109
			c0,4.62,3.745,8.366,8.366,8.366s8.366-3.746,8.366-8.366v-9.109h17.289v9.109c0,4.62,3.745,8.366,8.366,8.366
			s8.366-3.746,8.366-8.366v-9.109h17.288v9.109c0,4.62,3.745,8.366,8.366,8.366c4.622,0,8.366-3.746,8.366-8.366v-9.109h17.289
			v9.109c0,4.62,3.745,8.366,8.366,8.366s8.366-3.746,8.366-8.366v-9.109h15.142C326.883,421.879,306.768,442.144,281.335,446.05z
			 M238.431,62.95c0-0.012,0-0.026,0-0.038v-3.51c0-9.688,7.881-17.569,17.569-17.569c9.682,0,17.558,7.881,17.558,17.569v3.513
			c0,0.011,0,0.023,0,0.035v98.567h-35.128V62.95z M148.68,147.041c0.05-0.133,0.097-0.268,0.141-0.404
			c6.039-18.812,17.047-35.791,31.839-49.107c11.887-10.718,25.918-18.761,41.037-23.598v87.584h-76.568
			C145.992,156.617,147.178,151.774,148.68,147.041z M381.273,221.988H130.716v-43.74h177.713c4.622,0,8.366-3.746,8.366-8.366
			s-3.745-8.366-8.366-8.366h-18.138V73.932c15.115,4.835,29.151,12.879,41.05,23.601c14.774,13.309,25.783,30.292,31.838,49.11
			c1.563,4.861,2.794,9.838,3.683,14.874h-31.661c-4.622,0-8.366,3.746-8.366,8.366s3.745,8.365,8.366,8.365h46.071V221.988z
			 M440.73,77.986h-0.001c0,31.727-25.818,57.539-57.55,57.539h-6.184c-5.035-13.339-12.267-25.761-21.36-36.745h11.404
			c30.366,0,57.284-15.045,73.691-38.069V77.986z"/>
	</g>
</g>
<g>
	<g>
		<path d="M339.44,191.747c-4.618,0-8.355,3.748-8.355,8.378c0,4.618,3.738,8.355,8.355,8.355c4.629,0,8.378-3.737,8.378-8.355
			C347.817,195.495,344.07,191.747,339.44,191.747z"/>
	</g>
</g>
<g>
	<g>
		<path d="M367.262,191.747c-4.618,0-8.355,3.748-8.355,8.378c0,4.618,3.737,8.355,8.355,8.355c4.629,0,8.378-3.737,8.378-8.355
			C375.639,195.495,371.892,191.747,367.262,191.747z"/>
	</g>
</g>
<g>
	<g>
		<path d="M311.631,191.747c-4.619,0-8.366,3.748-8.366,8.378c0,4.618,3.747,8.355,8.366,8.355c4.618,0,8.366-3.737,8.366-8.355
			C319.997,195.495,316.248,191.747,311.631,191.747z"/>
	</g>
</g>
<g>
	<g>
		<path d="M283.809,191.747c-4.618,0-8.366,3.748-8.366,8.378c0,4.618,3.748,8.355,8.366,8.355c4.618,0,8.366-3.737,8.366-8.355
			C292.175,195.495,288.427,191.747,283.809,191.747z"/>
	</g>
</g>
<g>
	<g>
		<path d="M255.989,191.747c-4.619,0-8.355,3.748-8.355,8.378c0,4.618,3.737,8.355,8.355,8.355c4.628,0,8.378-3.737,8.378-8.355
			C264.366,195.495,260.617,191.747,255.989,191.747z"/>
	</g>
</g>
<g>
	<g>
		<path d="M228.178,191.747c-4.618,0-8.366,3.748-8.366,8.378c0,4.618,3.748,8.355,8.366,8.355c4.619,0,8.366-3.737,8.366-8.355
			C236.544,195.495,232.797,191.747,228.178,191.747z"/>
	</g>
</g>
<g>
	<g>
		<path d="M200.358,191.747c-4.619,0-8.366,3.748-8.366,8.378c0,4.618,3.747,8.355,8.366,8.355c4.618,0,8.366-3.737,8.366-8.355
			C208.724,195.495,204.975,191.747,200.358,191.747z"/>
	</g>
</g>
<g>
	<g>
		<path d="M172.547,191.747c-4.628,0-8.366,3.748-8.366,8.378c0,4.618,3.738,8.355,8.366,8.355c4.619,0,8.366-3.737,8.366-8.355
			C180.913,195.495,177.166,191.747,172.547,191.747z"/>
	</g>
</g>
<g>
	<g>
		<path d="M287.875,335.562l-24.633-42.666c-1.495-2.588-4.257-4.183-7.245-4.183c-2.99,0-5.75,1.595-7.245,4.183l-24.634,42.666
			c-1.495,2.589-1.495,5.777,0,8.366c1.495,2.589,4.256,4.183,7.245,4.183h49.267c2.99,0,5.75-1.594,7.245-4.183
			C289.37,341.339,289.37,338.151,287.875,335.562z M245.853,331.38l10.143-17.567l10.142,17.567H245.853z"/>
	</g>
</g>
<g>
	<g>
		<path d="M144.727,191.747c-4.618,0-8.355,3.748-8.355,8.378c-0.001,4.618,3.737,8.355,8.355,8.355
			c4.629,0,8.378-3.737,8.378-8.355C153.104,195.495,149.357,191.747,144.727,191.747z"/>
	</g>
</g>
<g>
</g>
<g>
</g>
<g>
</g>
<g>
</g>
<g>
</g>
<g>
</g>
<g>
</g>
<g>
</g>
<g>
</g>
<g>
</g>
<g>
</g>
<g>
</g>
<g>
</g>
<g>
</g>
<g>
</g>
</svg>
