<?xml version="1.0" encoding="iso-8859-1"?>
<!-- Generator: Adobe Illustrator 19.0.0, SVG Export Plug-In . SVG Version: 6.00 Build 0)  -->
<svg version="1.1" id="Layer_1" xmlns="http://www.w3.org/2000/svg" xmlns:xlink="http://www.w3.org/1999/xlink" x="0px" y="0px"
	 viewBox="0 0 512.002 512.002" style="enable-background:new 0 0 512.002 512.002;" xml:space="preserve">
<g>
	<g>
		<path d="M352.13,324.892h-22.506l8.484-250.993c0.084-2.463-0.937-4.835-2.783-6.469L261.486,2.076
			c-3.128-2.768-7.829-2.768-10.956,0l-73.839,65.353c-1.846,1.633-2.866,4.005-2.783,6.468l3.866,114.528
			c0.154,4.563,4.009,8.132,8.54,7.982c4.563-0.154,8.135-3.977,7.982-8.54L190.561,77.23l65.446-57.925l65.446,57.925
			l-8.371,247.662h-48.813V168.396c0-4.565-3.701-8.266-8.266-8.266c-4.565,0-8.266,3.701-8.266,8.266v156.495h-48.816
			l-3.281-97.172c-0.153-4.563-3.969-8.133-8.54-7.982c-4.563,0.154-8.137,3.977-7.982,8.54l3.261,96.614h-22.508
			c-4.565,0-8.266,3.701-8.266,8.266v32.809c0,3.975,2.83,7.387,6.736,8.123l63.289,11.916l4.545,83.954h-5.095
			c-4.565,0-8.266,3.701-8.266,8.266v25.513c0,4.565,3.701,8.266,8.266,8.266h69.838c4.565,0,8.266-3.701,8.266-8.266v-25.513
			c0-4.565-3.701-8.266-8.266-8.266h-5.094l1.462-26.968c0.248-4.558-3.247-8.454-7.806-8.701c-4.556-0.252-8.454,3.248-8.701,7.806
			l-1.512,27.863h-26.537l-4.472-82.611h35.492l-1.533,28.256c-0.248,4.558,3.247,8.454,7.806,8.701
			c4.553,0.261,8.453-3.248,8.701-7.806l1.654-30.494l63.279-11.916c3.907-0.735,6.736-4.148,6.736-8.123v-32.808
			C360.395,328.592,356.695,324.892,352.13,324.892z M282.655,486.488v8.982h-53.307v-8.982H282.655z M343.864,359.111
			l-62.158,11.704h-51.399l-62.168-11.704v-17.688h175.725V359.111z"/>
	</g>
</g>
<g>
	<g>
		<path d="M256.004,44.967c-4.565,0-8.266,3.701-8.266,8.266v80.45c0,4.565,3.7,8.266,8.266,8.266c4.565,0,8.266-3.701,8.266-8.266
			v-80.45C264.269,48.667,260.569,44.967,256.004,44.967z"/>
	</g>
</g>
<g>
</g>
<g>
</g>
<g>
</g>
<g>
</g>
<g>
</g>
<g>
</g>
<g>
</g>
<g>
</g>
<g>
</g>
<g>
</g>
<g>
</g>
<g>
</g>
<g>
</g>
<g>
</g>
<g>
</g>
</svg>
