<?xml version="1.0" encoding="iso-8859-1"?>
<!-- Generator: Adobe Illustrator 19.0.0, SVG Export Plug-In . SVG Version: 6.00 Build 0)  -->
<svg version="1.1" id="Layer_1" xmlns="http://www.w3.org/2000/svg" xmlns:xlink="http://www.w3.org/1999/xlink" x="0px" y="0px"
	 viewBox="0 0 512 512" style="enable-background:new 0 0 512 512;" xml:space="preserve">
<g>
	<g>
		<path d="M412.046,198.495L397.275,8.2c-0.359-4.628-4.219-8.2-8.86-8.2h-58.553c-4.908,0-8.887,3.979-8.887,8.887v48.104h-23.848
			V8.887c0-4.908-3.979-8.887-8.887-8.887H223.76c-4.908,0-8.887,3.979-8.887,8.887v48.104h-23.848V8.887
			c0-4.908-3.979-8.887-8.887-8.887h-58.553c-4.642,0-8.501,3.572-8.861,8.2l-4.767,61.411c-0.379,4.894,3.28,9.168,8.173,9.548
			c4.882,0.383,9.168-3.279,9.549-8.173l4.132-53.212h41.442v48.104c0,4.908,3.979,8.887,8.887,8.887h41.622
			c4.908,0,8.887-3.979,8.887-8.887V17.775h46.705v48.104c0,4.908,3.979,8.887,8.887,8.887h41.622c4.908,0,8.887-3.979,8.887-8.887
			V17.775h41.442l13.391,172.52H118.418l6.673-85.962c0.379-4.894-3.28-9.168-8.173-9.549c-4.887-0.38-9.169,3.279-9.548,8.173
			l-7.416,95.537c-0.192,2.469,0.655,4.906,2.338,6.724c1.683,1.818,4.047,2.851,6.523,2.851h20.103v295.043
			c0,4.908,3.979,8.887,8.887,8.887h236.39c4.908,0,8.887-3.979,8.887-8.887V272.589c0-4.908-3.979-8.887-8.887-8.887
			s-8.887,3.979-8.887,8.887v221.636H146.693V208.07h218.616v31.34c0,4.908,3.979,8.887,8.887,8.887s8.887-3.979,8.887-8.887v-31.34
			h20.103c2.477,0,4.841-1.033,6.523-2.851C411.39,203.401,412.237,200.963,412.046,198.495z"/>
	</g>
</g>
<g>
	<g>
		<path d="M256,258.724c-21.071,0-38.214,17.143-38.214,38.214v12.705c0,4.908,3.979,8.887,8.887,8.887s8.887-3.979,8.887-8.887
			v-12.705c0-11.27,9.169-20.44,20.44-20.44c11.27,0,20.44,9.169,20.44,20.44v61.319h-40.878v-16.62
			c0-4.908-3.979-8.887-8.887-8.887c-4.908,0-8.887,3.979-8.887,8.887v25.508c0,4.908,3.979,8.887,8.887,8.887h58.654
			c4.907,0,8.886-3.979,8.886-8.887v-70.206C294.214,275.867,277.071,258.724,256,258.724z"/>
	</g>
</g>
<g>
	<g>
		<path d="M190.237,95.204c-21.071,0-38.214,17.143-38.214,38.214v28.438c0,4.908,3.979,8.887,8.887,8.887h58.654
			c4.908,0,8.887-3.979,8.887-8.887v-28.438C228.451,112.347,211.308,95.204,190.237,95.204z M210.678,152.971h-40.879V133.42
			c0-11.27,9.169-20.44,20.44-20.44s20.44,9.169,20.44,20.44V152.971z"/>
	</g>
</g>
<g>
	<g>
		<path d="M321.762,95.204c-21.071,0-38.214,17.143-38.214,38.214v28.438c0,4.908,3.979,8.887,8.887,8.887h58.654
			c4.908,0,8.887-3.979,8.887-8.887v-28.438C359.976,112.347,342.833,95.204,321.762,95.204z M342.203,152.971h-40.879V133.42
			c0-11.27,9.169-20.44,20.44-20.44c11.27,0,20.44,9.169,20.44,20.44V152.971z"/>
	</g>
</g>
<g>
	<g>
		<path d="M255.566,458.523h-31.402v-19.169h19.552c4.908,0,8.887-3.979,8.887-8.887s-3.979-8.887-8.887-8.887h-59.249
			c-4.908,0-8.887,3.979-8.887,8.887s3.979,8.887,8.887,8.887h21.922v19.169h-10.072c-4.908,0-8.887,3.979-8.887,8.887
			c0,4.908,3.979,8.887,8.887,8.887h59.249c4.908,0,8.887-3.979,8.887-8.887C264.453,462.502,260.474,458.523,255.566,458.523z"/>
	</g>
</g>
<g>
</g>
<g>
</g>
<g>
</g>
<g>
</g>
<g>
</g>
<g>
</g>
<g>
</g>
<g>
</g>
<g>
</g>
<g>
</g>
<g>
</g>
<g>
</g>
<g>
</g>
<g>
</g>
<g>
</g>
</svg>
