<?xml version="1.0" encoding="utf-8"?>
<!-- Generator: Adobe Illustrator 21.1.0, SVG Export Plug-In . SVG Version: 6.00 Build 0)  -->
<svg version="1.1"
	 id="svg3469" inkscape:version="0.48.4 r9939" sodipodi:docname="Celtic Ornament v4 by Merlin2525.svg" xmlns:cc="http://creativecommons.org/ns#" xmlns:dc="http://purl.org/dc/elements/1.1/" xmlns:inkscape="http://www.inkscape.org/namespaces/inkscape" xmlns:rdf="http://www.w3.org/1999/02/22-rdf-syntax-ns#" xmlns:sodipodi="http://sodipodi.sourceforge.net/DTD/sodipodi-0.dtd" xmlns:svg="http://www.w3.org/2000/svg"
	 xmlns="http://www.w3.org/2000/svg" xmlns:xlink="http://www.w3.org/1999/xlink" x="0px" y="0px" viewBox="0 0 621.5 625.2"
	 style="enable-background:new 0 0 621.5 625.2;" xml:space="preserve">
<style type="text/css">
	.st0{fill:url(#path6116_1_);}
	.st1{fill:url(#path6118_1_);}
	.st2{fill:url(#path6120_1_);}
	.st3{fill:url(#path6122_1_);}
	.st4{fill:url(#path6124_1_);}
	.st5{fill:url(#path6126_1_);}
	.st6{fill:url(#path6128_1_);}
	.st7{fill:url(#path6130_1_);}
	.st8{fill:url(#path6132_1_);}
	.st9{fill:url(#path6134_1_);}
	.st10{fill:url(#path6136_1_);}
	.st11{fill:url(#path6138_1_);}
	.st12{fill:url(#path6140_1_);}
	.st13{fill:url(#path6142_1_);}
	.st14{fill:url(#path6144_1_);}
	.st15{fill:url(#path6146_1_);}
	.st16{fill:url(#path6148_1_);}
	.st17{fill:url(#path6150_1_);}
	.st18{fill:url(#path6152_1_);}
	.st19{fill:url(#path6154_1_);}
	.st20{fill:url(#path6156_1_);}
	.st21{fill:url(#path6158_1_);}
	.st22{fill:url(#path6160_1_);}
	.st23{fill:url(#path6162_1_);}
	.st24{fill:url(#path6164_1_);}
	.st25{fill:url(#path6166_1_);}
	.st26{fill:url(#path6168_1_);}
	.st27{fill:url(#path6170_1_);}
	.st28{fill:url(#path6172_1_);}
	.st29{fill:url(#path6174_1_);}
	.st30{fill:url(#path6176_1_);}
	.st31{fill:url(#path6178_1_);}
	.st32{fill:url(#path6180_1_);}
	.st33{fill:url(#path6182_1_);}
	.st34{fill:url(#path6184_1_);}
	.st35{fill:url(#path6186_1_);}
	.st36{fill:url(#path6188_1_);}
	.st37{fill:url(#path6190_1_);}
	.st38{fill:url(#path6192_1_);}
	.st39{opacity:0.4239;filter:url(#filter5846);enable-background:new    ;}
	.st40{fill:url(#SVGID_1_);}
	.st41{opacity:0.2798;filter:url(#filter5854);enable-background:new    ;}
	.st42{fill:url(#SVGID_2_);}
	.st43{opacity:0.3292;filter:url(#filter5796);enable-background:new    ;}
	.st44{fill:url(#SVGID_3_);}
	.st45{opacity:0.2305;filter:url(#filter5910);enable-background:new    ;}
	.st46{fill:url(#SVGID_4_);}
	.st47{opacity:0.251;filter:url(#filter5894);enable-background:new    ;}
	.st48{fill:url(#SVGID_5_);}
	.st49{opacity:0.2798;filter:url(#filter5914);enable-background:new    ;}
	.st50{fill:url(#SVGID_6_);}
</style>
<filter  color-interpolation-filters="sRGB" id="filter5914" inkscape:collect="always">
	<feGaussianBlur  id="feGaussianBlur5916" inkscape:collect="always" stdDeviation="3.1594478"></feGaussianBlur>
</filter>
<filter  color-interpolation-filters="sRGB" height="1.1810127" id="filter5910" inkscape:collect="always" width="1.4764206" x="-0.23821031" y="-0.090506405">
	<feGaussianBlur  id="feGaussianBlur5912" inkscape:collect="always" stdDeviation="4.752504"></feGaussianBlur>
</filter>
<filter  color-interpolation-filters="sRGB" height="1.0866542" id="filter5894" inkscape:collect="always" width="1.4582744" x="-0.22913718" y="-0.043327093">
	<feGaussianBlur  id="feGaussianBlur5896" inkscape:collect="always" stdDeviation="2.2237299"></feGaussianBlur>
</filter>
<filter  color-interpolation-filters="sRGB" id="filter5854" inkscape:collect="always">
	<feGaussianBlur  id="feGaussianBlur5856" inkscape:collect="always" stdDeviation="3.4932884"></feGaussianBlur>
</filter>
<filter  color-interpolation-filters="sRGB" id="filter5846" inkscape:collect="always">
	<feGaussianBlur  id="feGaussianBlur5848" inkscape:collect="always" stdDeviation="5.8216489"></feGaussianBlur>
</filter>
<filter  color-interpolation-filters="sRGB" id="filter5796" inkscape:collect="always">
	<feGaussianBlur  id="feGaussianBlur5798" inkscape:collect="always" stdDeviation="7.1773846"></feGaussianBlur>
</filter>
<title  id="title3906">Celtic Ornament v4 by Merlin2525.svg</title>
<sodipodi:namedview  bordercolor="#666666" borderopacity="1.0" fit-margin-bottom="0" fit-margin-left="0" fit-margin-right="0" fit-margin-top="0" id="base" inkscape:current-layer="layer1" inkscape:cx="-189.27467" inkscape:cy="312.59223" inkscape:document-units="px" inkscape:pageopacity="0.0" inkscape:pageshadow="2" inkscape:window-height="716" inkscape:window-maximized="0" inkscape:window-width="687" inkscape:window-x="712" inkscape:window-y="24" inkscape:zoom="0.35" pagecolor="#ffffff" showgrid="false">
	</sodipodi:namedview>
<g id="layer1" transform="translate(-64.274675,-219.76994)" inkscape:groupmode="layer" inkscape:label="Layer 1">
	<g id="g6236" transform="translate(-2361.3696,-367.99423)">
		<linearGradient id="path6116_1_" gradientUnits="userSpaceOnUse" x1="2739.0957" y1="694.655" x2="2866.1628" y2="694.655">
			<stop  offset="1.182556e-06" style="stop-color:#8E46CC"/>
			<stop  offset="1" style="stop-color:#000000"/>
		</linearGradient>
		<path id="path6116" inkscape:connector-curvature="0" sodipodi:nodetypes="csscccccccscssc" class="st0" d="M2739.1,617.5
			c6.6-3.8,15-6,21.8-5.4c54,4.7,59.5,72.2,67.2,113.4c3.1,16.5,9.4,30,15.9,45c1.3,2.9,0,7.5-4,6.9c-5.9-0.9-5.5-9.7-6.8-13.9
			c-1.7-5.8-4.9-11.1-6.5-17c-1.8-6.9-2.1-15.9-5.8-22c-9.1,13.2-20.4,44.1-9.6,58c8.4,10.9,22.7,18.6,36.6,19
			c5.9,0.1,12.7-0.1,15.8-6c7.6-14.4-6.3-39.9-10.2-54c-11.7-42.1,0.6-98-31.7-132.7c-18.6-20-47.3-29.8-70-11.2
			C2745.4,603,2740,608.8,2739.1,617.5L2739.1,617.5z"/>
		<linearGradient id="path6118_1_" gradientUnits="userSpaceOnUse" x1="2895.7627" y1="614.0344" x2="2896.4287" y2="614.0344">
			<stop  offset="1.182556e-06" style="stop-color:#8E46CC"/>
			<stop  offset="1" style="stop-color:#000000"/>
		</linearGradient>
		<path id="path6118" inkscape:connector-curvature="0" sodipodi:nodetypes="ccc" class="st1" d="M2895.8,613.9l0.7,0.3
			L2895.8,613.9"/>
		<linearGradient id="path6120_1_" gradientUnits="userSpaceOnUse" x1="2542.0957" y1="768.7876" x2="2742.2749" y2="768.7876">
			<stop  offset="1.182556e-06" style="stop-color:#8E46CC"/>
			<stop  offset="1" style="stop-color:#000000"/>
		</linearGradient>
		<path id="path6120" inkscape:connector-curvature="0" sodipodi:nodetypes="cccscccccscc" class="st2" d="M2542.1,674.5
			c18.2-7,43.7-8.9,68.1-1.5c46.8-29.9,75.3,16.6,84.4,45.7c14.8,48.1,7.2,100.6-9.2,147.7c-4.1,11.8-10.7,22.4-15.3,34
			c9.8,6.7,19.3,13.4,30,18.5c2.8,1.4,7.2,5,10.6,3.8c10.5-17.5,18.5-49.7,23-67.3c4.7-18.6,6.2-38,7.5-57
			c4-57.9-0.9-124.5-48.1-165.8c-35.4-31.1-90.9-18.4-124,8.5C2561,647.3,2547.9,660.6,2542.1,674.5L2542.1,674.5z"/>
		<linearGradient id="path6122_1_" gradientUnits="userSpaceOnUse" x1="2839.8538" y1="719.4243" x2="2984.9382" y2="719.4243">
			<stop  offset="1.182556e-06" style="stop-color:#8E46CC"/>
			<stop  offset="1" style="stop-color:#000000"/>
		</linearGradient>
		<path id="path6122" inkscape:connector-curvature="0" class="st3" d="M2850.1,671.5c8.4-1.3,14.8-6.9,24-5.8
			c44.7,5.2,61.1,49.2,64.8,87.8c0.8,8.4,0.2,18.7-1.5,27c-1.1,5.2-4,11.8-1.3,17c3.3,6.2,12.6,10.3,18,14.6c3.6,2.9,8.1,10,13,10.6
			c5.3,0.7,8.9-11.4,10.6-15.1c8.1-18.1,8.4-38.7,5.9-58c-5.3-39.8-16.8-72.1-45.1-101.2c-10.7-10.9-21.6-21.2-36.3-26.3
			c-14.8-5.1-31.4-7.2-47-4.9c-4,0.6-12.7,0.7-14.8,4.8c-1.7,3.4,2.7,12.2,3.9,15.6C2848.2,648.6,2850.1,659.8,2850.1,671.5
			L2850.1,671.5z"/>
		<linearGradient id="path6124_1_" gradientUnits="userSpaceOnUse" x1="2763.0957" y1="651.514" x2="2798.5703" y2="651.514">
			<stop  offset="1.182556e-06" style="stop-color:#8E46CC"/>
			<stop  offset="1" style="stop-color:#000000"/>
		</linearGradient>
		<path id="path6124" inkscape:connector-curvature="0" sodipodi:nodetypes="cccc" class="st4" d="M2763.1,620.5c0,21.8,9,62,9,62
			c6.6-13.6,15.6-25.6,26.5-38C2798.6,644.6,2785.4,619.3,2763.1,620.5z"/>
		<linearGradient id="path6126_1_" gradientUnits="userSpaceOnUse" x1="2751.0955" y1="731.5344" x2="2818.6458" y2="731.5344">
			<stop  offset="1.182556e-06" style="stop-color:#8E46CC"/>
			<stop  offset="1" style="stop-color:#000000"/>
		</linearGradient>
		<path id="path6126" inkscape:connector-curvature="0" class="st5" d="M2751.1,796.5l46,15c-0.9-20,0.3-39.8,6.6-59
			c4.5-13.7,13.9-29.5,14.9-44c1.1-16.9-8.4-41.9-15.5-57c-10.1,4.8-17.2,20.8-22.9,30C2759,716.1,2751.1,756.3,2751.1,796.5
			L2751.1,796.5z"/>
		<linearGradient id="path6128_1_" gradientUnits="userSpaceOnUse" x1="2488.1602" y1="719.4445" x2="2664.9045" y2="719.4445">
			<stop  offset="1.182556e-06" style="stop-color:#8E46CC"/>
			<stop  offset="1" style="stop-color:#000000"/>
		</linearGradient>
		<path id="path6128" inkscape:connector-curvature="0" sodipodi:nodetypes="ccccccsc" class="st6" d="M2494.1,765.9
			c7.7-5.1,22.1-11.2,22.1-11.2c-4.4-62,65.5-75.9,102.9-46.5c25.2,26.5,2.6,38.1-27.4,37.4l0.5,17.9c12.3,1.1,48.3,3.6,64.9-9.6
			c21.5-17.1-6.1-48.5-20.9-60.8C2573.6,641.3,2461.1,698,2494.1,765.9L2494.1,765.9z"/>
		<linearGradient id="path6130_1_" gradientUnits="userSpaceOnUse" x1="2852.7634" y1="738.5814" x2="2932.3477" y2="738.5814">
			<stop  offset="1.182556e-06" style="stop-color:#8E46CC"/>
			<stop  offset="1" style="stop-color:#000000"/>
		</linearGradient>
		<path id="path6130" inkscape:connector-curvature="0" sodipodi:nodetypes="csccccccccc" class="st7" d="M2855.1,716.5
			c4.9-5.2,10.6-7.4,17-7.5c16.4-0.2,35,19.4,35.5,35.5c0.3,11.5-3.4,21-11.5,27c10.4,6.4,20.6,16.8,33,19c0.4-8.9,4.7-16.9,2.7-26
			c-1.3-5.9-7.3-11.9-10.4-17c-8.2-13.5-15.4-26.5-25.2-39c-7.5-9.5-16.7-16.8-28.1-20.9c-3.5-1.2-11.4-1.9-14,1.5
			C2850.6,693.8,2855.1,710.5,2855.1,716.5z"/>
		<linearGradient id="path6132_1_" gradientUnits="userSpaceOnUse" x1="2522.6567" y1="764.7775" x2="2597.0957" y2="764.7775">
			<stop  offset="1.182556e-06" style="stop-color:#8E46CC"/>
			<stop  offset="1" style="stop-color:#000000"/>
		</linearGradient>
		<path id="path6132" inkscape:connector-curvature="0" sodipodi:nodetypes="ccccc" class="st8" d="M2597.1,803.5
			c-15.5-33.2-12.7-69.1-3-103c-91-14.6-78.7,71.6-52.1,130.1c0,0,13.8-6.9,17.1-8.8C2571.4,814.6,2584.2,809.3,2597.1,803.5z"/>
		<linearGradient id="path6134_1_" gradientUnits="userSpaceOnUse" x1="2858.4033" y1="741.7314" x2="2901.1248" y2="741.7314">
			<stop  offset="1.182556e-06" style="stop-color:#8E46CC"/>
			<stop  offset="1" style="stop-color:#000000"/>
		</linearGradient>
		<path id="path6134" inkscape:connector-curvature="0" class="st9" d="M2870.1,716.1c-13.6,2.4-13.1,16.2-9.6,26.4
			c4.2,12.2,8.5,27.8,25.6,24.7C2915.8,761.9,2896.6,711.5,2870.1,716.1L2870.1,716.1z"/>
		<linearGradient id="path6136_1_" gradientUnits="userSpaceOnUse" x1="2865.2747" y1="741.0203" x2="2887.4939" y2="741.0203">
			<stop  offset="1.182556e-06" style="stop-color:#8E46CC"/>
			<stop  offset="1" style="stop-color:#000000"/>
		</linearGradient>
		<path id="path6136" inkscape:connector-curvature="0" class="st10" d="M2871.1,729.3c-11.4,4.5-4.8,28.3,8.7,23.7
			C2895,747.9,2885.4,723.7,2871.1,729.3z"/>
		<linearGradient id="path6138_1_" gradientUnits="userSpaceOnUse" x1="2977.5388" y1="780.4209" x2="3046.9929" y2="780.4209">
			<stop  offset="1.182556e-06" style="stop-color:#8E46CC"/>
			<stop  offset="1" style="stop-color:#000000"/>
		</linearGradient>
		<path id="path6138" inkscape:connector-curvature="0" sodipodi:nodetypes="csccccccsc" class="st11" d="M2991.1,803.5
			c4.3,0.5,16.5,1.4,16.6-4.1c0.2-12.3,1.1-37.9,15.4-36.7c12,1.7,10.6,19.3,5.9,26.9c-9.8,15.5-27.8,23-44.9,17
			c-1.8,3.8-7.9,12.3-6.3,16.6c1.8,4.7,15.3,3.4,19.3,3.4c20.6,0,42.3-11.5,48.6-31.8c5.3-23.2-6.7-64.2-28.6-60.4
			C2992.1,738.7,2990.2,781.8,2991.1,803.5L2991.1,803.5z"/>
		<linearGradient id="path6140_1_" gradientUnits="userSpaceOnUse" x1="2425.6443" y1="807.3978" x2="2517.6785" y2="807.3978">
			<stop  offset="1.182556e-06" style="stop-color:#8E46CC"/>
			<stop  offset="1" style="stop-color:#000000"/>
		</linearGradient>
		<path id="path6140" inkscape:connector-curvature="0" sodipodi:nodetypes="ccscccsccc" class="st12" d="M2516.6,785.1
			c-29,10.8-11.8,47.9-39.5,55.8c-16.8,4.8-35.7-16-36.9-31.4c-0.9-10.8,4.9-21.4,11.2-29.8c5.5-7.4,14.7,4.4,20.5-4.3
			c3.9-5.9,5-16.6-3.8-18.4c-17.1-3.5-27.5,10.5-34.6,23.4c-12.7,23.3-10.2,45.3,8.6,64c4.7,4.7,9.4,9.3,16,11.2
			C2494.8,870.1,2523.8,818.8,2516.6,785.1L2516.6,785.1z"/>
		<linearGradient id="path6142_1_" gradientUnits="userSpaceOnUse" x1="2646.7627" y1="759.0344" x2="2647.4287" y2="759.0344">
			<stop  offset="1.182556e-06" style="stop-color:#8E46CC"/>
			<stop  offset="1" style="stop-color:#000000"/>
		</linearGradient>
		<path id="path6142" inkscape:connector-curvature="0" sodipodi:nodetypes="ccc" class="st13" d="M2646.8,758.9l0.7,0.3
			L2646.8,758.9z"/>
		<linearGradient id="path6144_1_" gradientUnits="userSpaceOnUse" x1="2454.9856" y1="797.5344" x2="2520.7332" y2="797.5344">
			<stop  offset="1.182556e-06" style="stop-color:#8E46CC"/>
			<stop  offset="1" style="stop-color:#000000"/>
		</linearGradient>
		<path id="path6144" inkscape:connector-curvature="0" sodipodi:nodetypes="ccsccc" class="st14" d="M2455,828.1
			c5.4,4.1,9.1,6.1,16.1,6.4c2.7-16,14.7-31.9,27-41.9c9.7-7.9,13-9,22.7-12.2l-1.6-19.9C2486.1,772.6,2463.1,799.4,2455,828.1
			L2455,828.1z"/>
		<linearGradient id="path6146_1_" gradientUnits="userSpaceOnUse" x1="2834.0957" y1="799.5555" x2="2918.1851" y2="799.5555">
			<stop  offset="1.182556e-06" style="stop-color:#8E46CC"/>
			<stop  offset="1" style="stop-color:#000000"/>
		</linearGradient>
		<path id="path6146" inkscape:connector-curvature="0" class="st15" d="M2869.1,771.5c5.7,18.1,1,36.7-21,36.7
			c-4.7,0-9.6-2.3-14-3.7c10.3,19.1,47.8,28.3,67,19.9c10.8-4.7,22.1-18.9,14.8-30.8c-4.4-7.2-14.5-12.8-21.8-16.6
			C2887.2,773.5,2876.8,772.8,2869.1,771.5z"/>
		<linearGradient id="path6148_1_" gradientUnits="userSpaceOnUse" x1="2479.3413" y1="902.464" x2="2695.1001" y2="902.464">
			<stop  offset="1.182556e-06" style="stop-color:#8E46CC"/>
			<stop  offset="1" style="stop-color:#000000"/>
		</linearGradient>
		<path id="path6148" inkscape:connector-curvature="0" sodipodi:nodetypes="cccccssccccscsc" class="st16" d="M2673.1,982.5
			c-2.4-7.5-16.5-10.9-23-14.6c-6.9-3.9-17-14.8-25-15.4c-6.4-0.5-15.6,8.3-22,10.3c-22.7,7.1-70.9,7.5-75.8-24.2
			c-2.5-16.3,16.5-37,27.8-46.4c25.7-21.3,52.5-36.6,85-45.3c11.9-3.2,46.8-5,46.8-5c3.1-10.2,8.2-35.4,8.2-46.6c0,0-20.7-1-26-0.3
			c-22.7,3-46.2,4.7-68,12.6c-52,19-103.8,58.3-119.6,113.9c-13.8,48.8,40.9,84.2,83.6,87.8c10.8,0.9,24.5,1.1,35.3,0.6
			C2619.9,1009.2,2647.8,995.2,2673.1,982.5L2673.1,982.5z"/>
		<linearGradient id="path6150_1_" gradientUnits="userSpaceOnUse" x1="2900.0957" y1="855.3199" x2="3011.4797" y2="855.3199">
			<stop  offset="1.182556e-06" style="stop-color:#8E46CC"/>
			<stop  offset="1" style="stop-color:#000000"/>
		</linearGradient>
		<path id="path6150" inkscape:connector-curvature="0" class="st17" d="M2924.1,796.5c2.9,15.9-10.3,29.1-24,35v2
			c23.7,8.3,43.5,34.2,55.7,55c4.3,7.3,9.4,15.7,11.3,24c12.2,2.3,23.6,2.7,35-2.9c3.7-1.8,9-4.3,9.4-9.1c0.7-9.2-10.4-22.8-15.2-30
			c-14.5-21.9-29.9-42-50.4-58.5C2939.4,806.9,2931.8,799.2,2924.1,796.5L2924.1,796.5z"/>
		<linearGradient id="path6152_1_" gradientUnits="userSpaceOnUse" x1="2741.0957" y1="854.601" x2="2874.0957" y2="854.601">
			<stop  offset="1.182556e-06" style="stop-color:#8E46CC"/>
			<stop  offset="1" style="stop-color:#000000"/>
		</linearGradient>
		<path id="path6152" inkscape:connector-curvature="0" class="st18" d="M2748.1,801.5l-7,51c25.7,8.1,48.6,20,71,34.8
			c6.9,4.6,18.5,20.3,27,20.3c3.7,0,7.3-4.1,10-6.1c9.2-7,16.8-15.8,25-24c-15.1-33.3-59.6-52.8-92-65.2
			C2771.4,808.2,2759.7,801.6,2748.1,801.5z"/>
		<linearGradient id="path6154_1_" gradientUnits="userSpaceOnUse" x1="2944.887" y1="887.1686" x2="3047.095" y2="887.1686">
			<stop  offset="1.182556e-06" style="stop-color:#8E46CC"/>
			<stop  offset="1" style="stop-color:#000000"/>
		</linearGradient>
		<path id="path6154" inkscape:connector-curvature="0" class="st19" d="M2945.1,902.5c-2.4,20.3,16.2,38.4,35,41.7
			c29.7,5.2,66.9-10.4,67-44.7c0-10.8-3.8-23.4-8.6-33c-4.6-9-9.2-18-13.9-27c-1.5-2.9-2.8-8.2-5.9-9.9c-2.6-1.4-7.1,0.5-9.5,1.8
			c-5,2.7-0.6,8.4,1,12.1c4.8,10.8,13.6,21.8,14.8,34c2.7,27.5-27.7,49.9-53.9,42.4C2960.6,916.9,2954.3,907.5,2945.1,902.5
			L2945.1,902.5z"/>
		<linearGradient id="path6156_1_" gradientUnits="userSpaceOnUse" x1="2827.8745" y1="903.9322" x2="2942.3086" y2="903.9322">
			<stop  offset="1.182556e-06" style="stop-color:#8E46CC"/>
			<stop  offset="1" style="stop-color:#000000"/>
		</linearGradient>
		<path id="path6156" inkscape:connector-curvature="0" class="st20" d="M2906.4,845.6c-7.3,3.8-13.5,17.6-18.8,23.9
			c-11,13.1-23.2,26.2-36.6,36.8c-6.4,5.1-19.7,12.5-22.8,20.2c-1.4,3.6,1.9,7.1,3.6,10c3.9,6.6,18.2,29.8,27.3,25.8
			c7.1-3.1,13.9-11.2,20-15.9c17.8-13.8,37.2-30.8,50.7-48.9c3.8-5.1,10.1-10.9,12.2-17c1.4-4.2-2.4-7.5-5-10.3
			c-6.5-6.9-12.8-13.6-19.9-19.9C2914.4,848,2910.4,843.5,2906.4,845.6L2906.4,845.6z"/>
		<linearGradient id="path6158_1_" gradientUnits="userSpaceOnUse" x1="2572.1511" y1="926.2814" x2="2802.0957" y2="926.2814">
			<stop  offset="1.182556e-06" style="stop-color:#8E46CC"/>
			<stop  offset="1" style="stop-color:#000000"/>
		</linearGradient>
		<path id="path6158" inkscape:connector-curvature="0" class="st21" d="M2802.1,988.5c-3.3-10.4-12.7-19.4-18.1-29
			c-2.2-4-3.9-9.5-8-12c-5.6-3.4-12.8-2.2-18.9-3.5c-14.2-2.8-29.3-7.1-43-11.9c-16.7-5.8-35.2-18.5-49.7-28.6
			c-11.7-8.1-22.6-18.8-32.4-29.1c-3.5-3.7-9.1-12.8-14.1-14.2c-3.8-1-8.5,2.4-11.8,3.8c-9.4,4-27.8,10.5-33.3,19.6
			c-2.8,4.6,4.1,12.8,6.8,16.4c10.3,14.3,22.8,27.9,36.5,38.9C2669.8,982,2734.2,1001.3,2802.1,988.5L2802.1,988.5z"/>
		<linearGradient id="path6160_1_" gradientUnits="userSpaceOnUse" x1="2450.1409" y1="1037.2416" x2="2958.3533" y2="1037.2416">
			<stop  offset="1.182556e-06" style="stop-color:#8E46CC"/>
			<stop  offset="1" style="stop-color:#000000"/>
		</linearGradient>
		<path id="path6160" inkscape:connector-curvature="0" class="st22" d="M2455.1,861.5c-6,26.5-5.9,51.8-3.2,79
			c18.5,184.6,217.5,316,394.2,258.9c39.6-12.8,78.6-42.8,100.3-77.9c13-20.9,19.6-43.6-2.3-61.7c-4.4-3.6-9.8-6.1-15-8.3
			c-40.7-17-68,21.8-96,43.5c-9.4,7.3-23.8,13.9-35,17.9c-85.8,31.2-173,9.3-246-41.1c-48.7-33.6-74-88.6-81.4-145.3
			c-1.8-13.7-3.6-28.2-2.4-42c0.4-4.9,3.2-16.1-0.2-20.3C2465.8,861.5,2458.4,861.8,2455.1,861.5L2455.1,861.5z"/>
		<linearGradient id="path6162_1_" gradientUnits="userSpaceOnUse" x1="2753.0957" y1="949.5302" x2="2892.1511" y2="949.5302">
			<stop  offset="1.182556e-06" style="stop-color:#8E46CC"/>
			<stop  offset="1" style="stop-color:#000000"/>
		</linearGradient>
		<path id="path6162" inkscape:connector-curvature="0" class="st23" d="M2753.1,862.5c0.1,16.3,6.2,32,11.9,47
			c14.3,37.5,35.3,70.7,65.1,97.8c10.2,9.3,21.7,19,34,25.2c4.5,2.2,10.8,6.2,15.6,2.4c5.9-4.8,15.7-27.9,11.4-35.1
			c-3.3-5.4-13-8.9-18-12.8c-12.3-9.4-23.8-20.7-34.2-32.2c-10.6-11.6-19.9-26.8-26-41.3c-3-7.1-3.5-17.2-7.8-23.5
			C2795.9,876.3,2768.3,866.7,2753.1,862.5z"/>
		<linearGradient id="path6164_1_" gradientUnits="userSpaceOnUse" x1="2885.175" y1="971.9188" x2="2973.0774" y2="971.9188">
			<stop  offset="1.182556e-06" style="stop-color:#8E46CC"/>
			<stop  offset="1" style="stop-color:#000000"/>
		</linearGradient>
		<path id="path6164" inkscape:connector-curvature="0" class="st24" d="M2898.1,1009.5c19.8-3.4,36.2-5.5,55,4.5
			c7,3.7,12,10.3,19,13.5c-0.1-7.4,1.6-14.5,0.7-22c-3.2-26.2-16.6-53.6-33.1-74c-3.4-4.2-11.9-14.7-17.7-15.2
			c-3.8-0.4-6.7,3.7-9.3,5.9c-5.7,4.9-10.6,10.9-16.7,15.3c-3.8,2.8-9.7,6-10.8,11c-1.4,6.1,8.4,19,10.7,25
			C2900.5,985.6,2898.2,997.4,2898.1,1009.5L2898.1,1009.5z"/>
		<linearGradient id="path6166_1_" gradientUnits="userSpaceOnUse" x1="2974.7627" y1="943.0344" x2="2975.4287" y2="943.0344">
			<stop  offset="1.182556e-06" style="stop-color:#8E46CC"/>
			<stop  offset="1" style="stop-color:#000000"/>
		</linearGradient>
		<path id="path6166" inkscape:connector-curvature="0" class="st25" d="M2974.8,942.9l0.7,0.3L2974.8,942.9z"/>
		<linearGradient id="path6168_1_" gradientUnits="userSpaceOnUse" x1="2756.7627" y1="944.0344" x2="2757.4287" y2="944.0344">
			<stop  offset="1.182556e-06" style="stop-color:#8E46CC"/>
			<stop  offset="1" style="stop-color:#000000"/>
		</linearGradient>
		<path id="path6168" inkscape:connector-curvature="0" class="st26" d="M2756.8,943.9l0.7,0.3L2756.8,943.9z"/>
		<linearGradient id="path6170_1_" gradientUnits="userSpaceOnUse" x1="2966.959" y1="982.0344" x2="3023.0957" y2="982.0344">
			<stop  offset="1.182556e-06" style="stop-color:#8E46CC"/>
			<stop  offset="1" style="stop-color:#000000"/>
		</linearGradient>
		<path id="path6170" inkscape:connector-curvature="0" class="st27" d="M2979.1,1019.5c10.6-2.9,16.9-11.4,22.7-20
			c11.2-16.3,21.2-34.6,21.3-55c-7.2,1.3-13.6,5.4-21,6.7c-13.2,2.3-30.9-5.5-35,13.3c-1.2,5.5,4.4,12.8,5.9,18
			C2976.6,994.5,2979.1,1007.1,2979.1,1019.5z"/>
		<linearGradient id="path6172_1_" gradientUnits="userSpaceOnUse" x1="2524.0955" y1="1055.7839" x2="2861.6619" y2="1055.7839">
			<stop  offset="1.182556e-06" style="stop-color:#8E46CC"/>
			<stop  offset="1" style="stop-color:#000000"/>
		</linearGradient>
		
			<path id="path6172" inkscape:connector-curvature="0" sodipodi:nodetypes="ccccsccscccccccscccccccsccccccccscscsscccccccc" class="st28" d="
			M2656.1,1053.5c0.8-15.2,14.7-10.1,21.4-18.3c3.9-4.8,0-12.4,3.5-17.6c7.5-11.2,25.1-0.7,28.6,8.9c9.4,25.7-22.2,43.6-43.5,41.9
			c-28.1-2.3-36.1-31.4-60-39.9c-7.1-2.5-18.7-0.5-24.8,3.8c-2.4,1.7-4.9,7.1-8.2,7.1c-3.7,0-7.4-10.3-13-11.8
			c-6.5-1.7-13.4,2.1-20,2.6c-5.3,0.4-10.9-1.7-16-2.7c1.7,7.3,12.1,20.8,20,21.8c3.7,0.5,7.4-3,10.8-2.2c3.9,0.9,2.4,7.5,4.2,10.2
			c3.4,5.3,10.1,9.1,16.1,10.4c4.3,0.9,8.7,1.1,13,0.1c15.6-3.6,31.7-17.8,45.7-2.1c3.7,4.1,4.4,7.6,3.1,12.8
			c-0.8,3.4-1.9,6.8-3.5,10c-3.4,6.4-10.2,9.7-13.4,16c8.8,4.3,26.1,11.2,36,9.5c10-1.7,18-10.5,29-10.4c20.1,0.3,38.4,9,58,11.6
			c31.2,4.1,66.4-8.1,90.7-27.4c10.5-8.3,26.8-22,27.8-36.3c1.4-21.7-23.3-26.7-38.5-16.9c-9.6,6.2-9.6,17-12,26.9
			c5.5-2.6,10.5-9.5,17-9.4c18.3,0.2,3,24.3-3,29.2c-19.4,16-51.3,13.2-74,8.7c-8-1.6-17.7-1.5-23-8.4c6-1,11.9,0.8,18,1
			c16.3,0.4,36.3-1.2,48.7-12.5c16.8-15.4,22.2-55.6-2.7-65.9c-19.5-7.3-36.3,1.4-43.8,14.5c-4.4,7.7-3.5,23.3,6.8,27
			c-0.9-14.9,17.5-32.5,29.8-19.9c10,10.3-0.8,24.9-8.8,32.5c-12.2,11.6-23.7,11.5-39.1,14.7c-8.9,1.8-20.1,4-29,0.5
			c-2-0.8-5.1-2.7-3.3-5.2c2.1-2.9,8.2-3.2,11.2-4.9c8.6-4.7,17.8-11.8,20.5-21.6c7.9-29.1-22-45.5-46.5-46
			c-16.6-0.3-34.1,5.9-42.8,21C2640.6,1028.2,2641.4,1049.2,2656.1,1053.5L2656.1,1053.5z"/>
		<linearGradient id="path6174_1_" gradientUnits="userSpaceOnUse" x1="2561.7627" y1="1009.0344" x2="2562.4287" y2="1009.0344">
			<stop  offset="1.182556e-06" style="stop-color:#8E46CC"/>
			<stop  offset="1" style="stop-color:#000000"/>
		</linearGradient>
		<path id="path6174" inkscape:connector-curvature="0" class="st29" d="M2561.8,1008.9l0.7,0.3L2561.8,1008.9z"/>
		<linearGradient id="path6176_1_" gradientUnits="userSpaceOnUse" x1="2880.0957" y1="1044.1598" x2="2972.7795" y2="1044.1598">
			<stop  offset="1.182556e-06" style="stop-color:#8E46CC"/>
			<stop  offset="1" style="stop-color:#000000"/>
		</linearGradient>
		<path id="path6176" inkscape:connector-curvature="0" class="st30" d="M2880.1,1047.5c7.2-0.7,13.6-4.4,21-4.9
			c27.1-1.9,50.2,10.9,63,34.9h2c3.5-10.4,10-30.5,4.7-41c-10.5-21-53.4-33.7-73.6-20.2C2890.5,1020.8,2881.9,1039.8,2880.1,1047.5z
			"/>
		<linearGradient id="path6178_1_" gradientUnits="userSpaceOnUse" x1="2739.7627" y1="1082.0344" x2="2740.4287" y2="1082.0344">
			<stop  offset="1.182556e-06" style="stop-color:#8E46CC"/>
			<stop  offset="1" style="stop-color:#000000"/>
		</linearGradient>
		<path id="path6178" inkscape:connector-curvature="0" class="st31" d="M2739.8,1081.9l0.7,0.3L2739.8,1081.9z"/>
		<linearGradient id="path6180_1_" gradientUnits="userSpaceOnUse" x1="2556.0957" y1="1138.3776" x2="2918.0376" y2="1138.3776">
			<stop  offset="1.182556e-06" style="stop-color:#8E46CC"/>
			<stop  offset="1" style="stop-color:#000000"/>
		</linearGradient>
		<path id="path6180" inkscape:connector-curvature="0" class="st32" d="M2556.1,1097.5c6.4,13.8,16.5,21.5,26.8,32.1
			c62.5,64.4,160.7,72.3,244.2,53.5c30.3-6.8,63.3-16.5,81.6-43.6c8.7-12.9,13.8-32.3,4.1-45.8c-11.4-15.9-44.2-8.1-56,3.5
			c-55.9,55.4-153.6,66.1-225.7,40.5c-14.6-5.2-29.9-11.3-43-19.7C2578.5,1111.9,2566.8,1100.5,2556.1,1097.5L2556.1,1097.5z"/>
		<linearGradient id="path6182_1_" gradientUnits="userSpaceOnUse" x1="2848.4556" y1="1109.6311" x2="2909.0957" y2="1109.6311">
			<stop  offset="1.182556e-06" style="stop-color:#8E46CC"/>
			<stop  offset="1" style="stop-color:#000000"/>
		</linearGradient>
		<path id="path6182" inkscape:connector-curvature="0" class="st33" d="M2909.1,1101.5c-2.2-9.2-9.8-10-18-10
			c-13.7,0-22.6,6-33,14.5c-2.7,2.2-7.1,4.4-8.6,7.8c-6.3,13.9,19.4,16.7,26.6,11.4c6.8-5,14.4-9.9,20.9-15.4
			C2901.1,1106.4,2903.5,1102.4,2909.1,1101.5L2909.1,1101.5z"/>
		<linearGradient id="path6184_1_" gradientUnits="userSpaceOnUse" x1="2863.3259" y1="1133.5944" x2="2911.0957" y2="1133.5944">
			<stop  offset="1.182556e-06" style="stop-color:#8E46CC"/>
			<stop  offset="1" style="stop-color:#000000"/>
		</linearGradient>
		<path id="path6184" inkscape:connector-curvature="0" sodipodi:nodetypes="ccccc" class="st34" d="M2911.1,1106.5
			c-14.3,6-31.7,21-41.2,33.1c-3.3,4.2-9.9,13.3-4.4,18.2c7.6,6.8,16.4-0.2,22.7-5C2903.7,1141,2911.1,1125.9,2911.1,1106.5z"/>
		<linearGradient id="path6186_1_" gradientUnits="userSpaceOnUse" x1="2580.0957" y1="1152.4684" x2="2742.0957" y2="1152.4684">
			<stop  offset="1.182556e-06" style="stop-color:#8E46CC"/>
			<stop  offset="1" style="stop-color:#000000"/>
		</linearGradient>
		<path id="path6186" inkscape:connector-curvature="0" class="st35" d="M2580.1,1119.5c23.8,32.7,73.2,57.5,113,62
			c8.2,0.9,18.7,5.1,27,3.5c7.7-1.6,14.1-9.9,22-12.5l-23-7.7l-14-7.9l-28-2.9l-45-11L2580.1,1119.5L2580.1,1119.5z"/>
		<linearGradient id="path6188_1_" gradientUnits="userSpaceOnUse" x1="2796.7549" y1="1147.0375" x2="2868.0959" y2="1147.0375">
			<stop  offset="1.182556e-06" style="stop-color:#8E46CC"/>
			<stop  offset="1" style="stop-color:#000000"/>
		</linearGradient>
		<path id="path6188" inkscape:connector-curvature="0" class="st36" d="M2868.1,1165.5c-2.6-1.8-5.4-3.2-7.7-5.5
			c-8.9-9,3.4-19.1,6.7-27.5c-10.1,0-21.2-2.2-25-13c-12.6,1.4-35.8,14.1-41.9,25c-4,7.1-5.5,19.5,1.2,25.4
			c5.3,4.7,12.1,4.6,18.7,4.6C2836,1174.5,2853.4,1171.8,2868.1,1165.5L2868.1,1165.5z"/>
		<linearGradient id="path6190_1_" gradientUnits="userSpaceOnUse" x1="2716.0957" y1="1153.6921" x2="2794.0957" y2="1153.6921">
			<stop  offset="1.182556e-06" style="stop-color:#8E46CC"/>
			<stop  offset="1" style="stop-color:#000000"/>
		</linearGradient>
		<path id="path6190" inkscape:connector-curvature="0" class="st37" d="M2716.1,1155.5c3.7,6,13.5,8,20,9.1c19,3.2,35.2-0.6,54-2.1
			l4-21l-33,9.7L2716.1,1155.5z"/>
		<linearGradient id="path6192_1_" gradientUnits="userSpaceOnUse" x1="2730.0957" y1="1177.5767" x2="2812.0957" y2="1177.5767">
			<stop  offset="1.182556e-06" style="stop-color:#8E46CC"/>
			<stop  offset="1" style="stop-color:#000000"/>
		</linearGradient>
		<path id="path6192" inkscape:connector-curvature="0" class="st38" d="M2730.1,1186.5l60-1.7l22-4.3c-7.4-2.6-12.5-8.9-19.3-11.4
			c-4.4-1.6-12.2,0.7-16.7,1.4C2763,1172.8,2737.1,1172.9,2730.1,1186.5z"/>
		<g id="path6194" inkscape:connector-curvature="0" sodipodi:nodetypes="ccccccccccc" class="st39">
			<linearGradient id="SVGID_1_" gradientUnits="userSpaceOnUse" x1="2556.5718" y1="769.5275" x2="2732.2661" y2="769.5275">
				<stop  offset="1.182556e-06" style="stop-color:#8E46CC"/>
				<stop  offset="1" style="stop-color:#000000"/>
			</linearGradient>
			<path class="st40" d="M2642,624.5c-29,0.5-70.9,13.1-85.5,44.6c14.9-1.7,27.1-0.6,41.6,1.8c21.2-24.4,63.3-19.5,79.8,0.1
				c26.9,27.1,34.3,67.3,34.4,104.3c-0.2,42.3-14,89.5-33.1,126.9c7.9,3.9,12.8,9.2,21.3,12.3c13.3-29.7,25.5-65.9,29.2-98.2
				c3.6-36.6,4.3-74.4-4.5-110.2c-8-30.3-24.9-61-53.8-75.6C2662.2,626.3,2652.1,624.3,2642,624.5z"/>
		</g>
		<g id="path6196" inkscape:connector-curvature="0" sodipodi:nodetypes="cccccsc" class="st41">
			<linearGradient id="SVGID_2_" gradientUnits="userSpaceOnUse" x1="2572.5295" y1="772.9949" x2="2725.5559" y2="772.9949">
				<stop  offset="1.182556e-06" style="stop-color:#8E46CC"/>
				<stop  offset="1" style="stop-color:#000000"/>
			</linearGradient>
			<path class="st42" d="M2572.5,666.6c9.6,0.1,3.2,0.4,12.6-0.1c41.2-42.1,89.9-24.6,106.7-0.3c43.1,68,24.7,179.8-6.1,244
				c4.1,2.5,2.2,0,6.7,2c48.3-96.2,42.8-225.5-9.9-265C2657.1,628.1,2607.1,625.3,2572.5,666.6L2572.5,666.6z"/>
		</g>
		<g id="path6198" inkscape:connector-curvature="0" sodipodi:nodetypes="ccccc" class="st43">
			<linearGradient id="SVGID_3_" gradientUnits="userSpaceOnUse" x1="2578.7124" y1="924.6777" x2="2799.4136" y2="924.6777">
				<stop  offset="1.182556e-06" style="stop-color:#8E46CC"/>
				<stop  offset="1" style="stop-color:#000000"/>
			</linearGradient>
			<path class="st44" d="M2781.4,959.6l18.1,24.1c-92.5,7.4-187.3-38.4-220.7-105.3c8.5-5.3,17.5-10,27.1-13.5
				C2630.6,900.9,2691.2,950.9,2781.4,959.6"/>
		</g>
		<g id="path6200" inkscape:connector-curvature="0" sodipodi:nodetypes="ccccc" class="st45">
			<linearGradient id="SVGID_4_" gradientUnits="userSpaceOnUse" x1="2535.5723" y1="762.0565" x2="2583.4546" y2="762.0565">
				<stop  offset="1.182556e-06" style="stop-color:#8E46CC"/>
				<stop  offset="1" style="stop-color:#000000"/>
			</linearGradient>
			<path class="st46" d="M2546.6,704.8c9.9-4.5,21.5-7,36.3-5.1c-17.1,46.3-12.2,77,0.6,109.2c0,0-24.3,11.4-33.3,16.2
				C2534.5,786.7,2528.8,745.4,2546.6,704.8L2546.6,704.8z"/>
		</g>
		<g id="path6202" inkscape:connector-curvature="0" sodipodi:nodetypes="ccccc" class="st47">
			<linearGradient id="SVGID_5_" gradientUnits="userSpaceOnUse" x1="2547.7063" y1="760.6869" x2="2570.9978" y2="760.6869">
				<stop  offset="1.182556e-06" style="stop-color:#8E46CC"/>
				<stop  offset="1" style="stop-color:#000000"/>
			</linearGradient>
			<path class="st48" d="M2558,699.9c-21.6,61.5-3.4,102.4,2.3,122.4l10.7-6.1c-10.1-37-19.8-74.1,0-117.1L2558,699.9z"/>
		</g>
		<g id="path6204" inkscape:connector-curvature="0" sodipodi:nodetypes="ccccc" class="st49">
			<linearGradient id="SVGID_6_" gradientUnits="userSpaceOnUse" x1="2589.3596" y1="922.1192" x2="2793.6365" y2="922.1192">
				<stop  offset="1.182556e-06" style="stop-color:#8E46CC"/>
				<stop  offset="1" style="stop-color:#000000"/>
			</linearGradient>
			<path class="st50" d="M2589.4,872c42.9,71.3,112.5,104.1,204.3,104.1l-7.7-9.2c-74.2,3.5-148.9-34.9-186.7-98.7L2589.4,872z"/>
		</g>
	</g>
</g>
</svg>
